<svg width="280" height="100" viewBox="0 0 280 100" fill="none" xmlns="http://www.w3.org/2000/svg">
<path fill-rule="evenodd" clip-rule="evenodd" d="M280.008 6.75488C274.084 2.83829 266.323 0.880005 256.724 0.880005H215.564V90.1525L250.362 45.12H243.144V23.14H253.644C258.685 23.14 262.143 24.5757 264.018 27.4471L280.008 6.75488ZM147.413 66.82V100H119.833V0.880005H160.993C172.94 0.880005 182.04 3.91334 188.294 9.98C194.64 15.9533 197.813 23.98 197.813 34.06C197.813 40.3133 196.414 45.9133 193.614 50.86C190.814 55.8067 186.613 59.7267 181.014 62.62C175.507 65.42 168.833 66.82 160.993 66.82H147.413ZM157.913 45.12C165.94 45.12 169.954 41.4333 169.954 34.06C169.954 26.78 165.94 23.14 157.913 23.14H147.413V45.12H157.913ZM35.0001 83.48H70.1401L75.6001 100H104.72L68.6001 1.3H36.8201L0.560059 100H29.5401L35.0001 83.48ZM52.6401 30.56L63.2801 62.76H41.8601L52.6401 30.56Z" fill="white"/>
</svg>
