<svg width="622" height="120" viewBox="0 0 622 120" fill="none" xmlns="http://www.w3.org/2000/svg">
<path fill-rule="evenodd" clip-rule="evenodd" d="M0.640137 94.2892V118H46.7601C58.8457 118 69.4185 115.517 78.4449 110.515C87.4545 105.521 94.4177 98.6707 99.3117 89.9702L99.3143 89.9656C104.206 81.161 106.64 71.1772 106.64 60.04C106.64 48.9046 104.207 38.9732 99.3139 30.2735C94.5232 21.5654 87.5529 14.8173 78.4307 10.0376C75.4219 8.40675 72.2413 7.0499 68.8902 5.96562L68.2397 6.80739C71.6641 7.89231 74.9043 9.26317 77.9601 10.92C86.9201 15.6133 93.7468 22.2266 98.4401 30.76C103.24 39.2933 105.64 49.0533 105.64 60.04C105.64 71.0266 103.24 80.84 98.4401 89.48C93.6401 98.0133 86.8135 104.733 77.9601 109.64C69.1068 114.547 58.7068 117 46.7601 117H1.64014V92.9951L0.640137 94.2892ZM33.1601 52.2045V88.84H43.8801C53.1601 88.84 60.4668 86.3333 65.8001 81.32C71.1335 76.3066 73.8001 69.2133 73.8001 60.04C73.8001 50.9733 71.1335 43.9333 65.8001 38.92C61.5165 34.8077 55.9598 32.3468 49.1301 31.5375L48.4141 32.4641C55.3469 33.1776 60.8877 35.5902 65.1076 39.6414L65.1152 39.6486C70.2013 44.4296 72.8001 51.1788 72.8001 60.04C72.8001 69.0118 70.199 75.8126 65.1152 80.5913C60.0133 85.3871 52.9766 87.84 43.8801 87.84H34.1601V50.9104L33.1601 52.2045ZM233.391 109.481L233.395 109.485C242.138 115.932 253.187 119.12 266.469 119.12C275.222 119.12 282.791 117.607 289.144 114.541C295.476 111.483 300.324 107.311 303.637 102.01C306.941 96.7241 308.589 90.8324 308.589 84.36C308.589 76.7426 306.847 70.4393 303.278 65.5318C299.782 60.726 295.615 57.0451 290.772 54.5137C286.025 52.0322 280.059 49.508 272.886 46.9385L272.874 46.9344C266.389 44.7017 261.667 42.702 258.661 40.9409C255.945 39.2894 254.669 37.0912 254.669 34.28C254.669 31.8956 255.311 30.2851 256.427 29.2548C257.579 28.1915 259.229 27.6 261.509 27.6C264.179 27.6 266.198 28.3835 267.682 29.8671L267.693 29.8778L267.704 29.8882C269.287 31.3783 270.346 33.7359 270.756 37.1203L270.863 38H306.578L306.507 36.9328C305.744 25.5982 301.367 16.7346 293.331 10.4568C285.424 4.08984 274.834 0.959961 261.669 0.959961C253.56 0.959961 246.279 2.31122 239.845 5.03652C233.395 7.66148 228.28 11.6133 224.536 16.8978C220.771 22.1038 218.909 28.3415 218.909 35.56C218.909 43.0681 220.596 49.312 224.051 54.2159L224.056 54.2221L224.06 54.2281C227.554 59.0323 231.67 62.6634 236.413 65.0903L236.422 65.0944C241.168 67.4674 247.132 69.8837 254.304 72.3458L254.313 72.3486C261.014 74.5825 265.831 76.6331 268.822 78.4896L268.832 78.4963L268.843 78.5027C271.649 80.1476 272.989 82.4429 272.989 85.48C272.989 87.8162 272.269 89.487 270.934 90.6443L270.921 90.6555L270.908 90.6672C269.658 91.8281 267.802 92.48 265.189 92.48C262.322 92.48 259.953 91.5979 258.018 89.8567C256.137 88.1635 254.973 85.509 254.666 81.7191L254.591 80.8H219.163L219.231 81.8641C219.994 93.7476 224.702 102.992 233.391 109.481ZM261.669 1.95996C274.682 1.95996 285.029 5.0533 292.709 11.24C300.26 17.136 304.501 25.3894 305.431 36C305.46 36.331 305.486 36.6643 305.509 37H271.749C271.322 33.48 270.202 30.8666 268.389 29.16C266.682 27.4533 264.389 26.6 261.509 26.6C259.056 26.6 257.136 27.24 255.749 28.52C254.362 29.8 253.669 31.72 253.669 34.28C253.669 37.48 255.162 39.9866 258.149 41.8C261.242 43.6133 266.042 45.64 272.549 47.88C279.696 50.44 285.616 52.9466 290.309 55.4C295.002 57.8533 299.056 61.4266 302.469 66.12C305.882 70.8133 307.589 76.8933 307.589 84.36C307.589 90.6533 305.989 96.36 302.789 101.48C299.589 106.6 294.896 110.653 288.709 113.64C282.522 116.627 275.109 118.12 266.469 118.12C253.349 118.12 242.522 114.973 233.989 108.68C225.805 102.568 221.244 93.9416 220.303 82.8C220.275 82.4689 220.25 82.1355 220.229 81.8H253.669C253.989 85.7466 255.216 88.68 257.349 90.6C259.482 92.52 262.096 93.48 265.189 93.48C267.962 93.48 270.096 92.7866 271.589 91.4C273.189 90.0133 273.989 88.04 273.989 85.48C273.989 82.0666 272.442 79.4533 269.349 77.64C266.256 75.72 261.349 73.64 254.629 71.4C247.482 68.9466 241.562 66.5466 236.869 64.2C232.282 61.8533 228.282 58.3333 224.869 53.64C221.562 48.9466 219.909 42.92 219.909 35.56C219.909 28.52 221.722 22.4933 225.349 17.48C228.976 12.36 233.936 8.51997 240.229 5.95997C246.522 3.2933 253.669 1.95996 261.669 1.95996ZM458.666 42.8H493.55L493.364 41.6413C491.405 29.4515 485.674 19.7253 476.181 12.5233C466.688 5.32184 454.567 1.75996 439.896 1.75996C428.233 1.75996 418.03 4.24456 409.322 9.25069C400.623 14.145 393.876 21.057 389.095 29.9671L389.093 29.9711C384.419 38.7752 382.096 48.8604 382.096 60.2C382.096 71.5398 384.419 81.6762 389.091 90.5844L389.095 90.5928C393.878 99.5057 400.679 106.47 409.483 111.47L409.491 111.474C418.302 116.369 428.555 118.8 440.216 118.8C453.929 118.8 465.353 115.45 474.415 108.681L474.416 108.68C483.502 101.866 490.126 93.678 494.254 84.1164L494.336 83.9267V51.52H434.896V75.92H465.643C463.448 80.0777 460.603 83.236 457.122 85.4345C453.246 87.8824 448.743 89.12 443.576 89.12C434.369 89.12 427.52 86.6659 422.858 81.9081C418.296 77.0364 415.936 69.8557 415.936 60.2C415.936 51.7355 418.128 45.1122 422.408 40.2196C426.784 35.2334 432.631 32.72 440.056 32.72C444.4 32.72 448.122 33.5982 451.256 35.3168C454.408 37.0454 456.772 39.3671 458.381 42.283L458.666 42.8ZM389.976 30.44C394.67 21.6933 401.283 14.92 409.816 10.12C418.35 5.21329 428.376 2.75996 439.896 2.75996C454.403 2.75996 466.296 6.27997 475.576 13.32C484.596 20.1624 490.139 29.3224 492.206 40.8C492.266 41.1314 492.322 41.4647 492.376 41.8H459.256C457.55 38.7066 455.043 36.2533 451.736 34.44C448.43 32.6266 444.536 31.72 440.056 31.72C432.376 31.72 426.243 34.3333 421.656 39.56C417.176 44.68 414.936 51.56 414.936 60.2C414.936 70.0133 417.336 77.48 422.136 82.6C427.043 87.6133 434.19 90.12 443.576 90.12C448.91 90.12 453.603 88.84 457.656 86.28C461.436 83.8931 464.473 80.4397 466.769 75.92C466.935 75.5922 467.098 75.2589 467.256 74.92H435.896V52.52H493.336V83.72C489.283 93.1066 482.776 101.16 473.816 107.88C464.963 114.493 453.763 117.8 440.216 117.8C428.696 117.8 418.616 115.4 409.976 110.6C401.336 105.693 394.67 98.8666 389.976 90.12C385.39 81.3733 383.096 71.4 383.096 60.2C383.096 49 385.39 39.08 389.976 30.44ZM620.03 117H588.51L546.91 53.8V117H515.39V3.87997H546.91L588.51 67.88V3.87997H620.03V117ZM587.971 118L547.91 57.138V118H514.39V2.87997H547.453L587.51 64.5066V2.87997H621.03V118H587.971ZM360.91 3.71997H329.39V117H360.91V3.71997ZM361.91 2.71997V118H328.39V2.71997H361.91ZM159.285 28.84H200.725V3.71997H127.765V117H200.725V91.88H159.285V71.4H195.925V47.56H159.285V28.84ZM160.285 46.56H196.925V72.4H160.285V90.88H201.725V118H126.765V2.71997H201.725V29.84H160.285V46.56Z" fill="white"/>
</svg>
