<svg width="312" height="100" viewBox="0 0 312 100" fill="none" xmlns="http://www.w3.org/2000/svg">
<path fill-rule="evenodd" clip-rule="evenodd" d="M311.579 4.7211C306.51 2.16037 300.16 0.880005 292.53 0.880005H244.65V91.3357L283.932 40.5H272.23V22.86H285.95C290.276 22.86 293.266 24.0009 294.918 26.2827L311.579 4.7211ZM119.2 100L142.3 0.880005H112.62L101.7 68.36L86.2999 0.880005H56.1998L40.9398 68.36L30.0198 0.880005H0.339844L23.4398 100H57.5998L71.3199 38.82L85.0399 100H119.2ZM188.804 22.86V39.24H220.864V60.1H188.804V78.02H225.064V100H161.224V0.880005H225.064V22.86H188.804Z" fill="white"/>
</svg>
