<svg width="630" height="261" viewBox="0 0 630 261" fill="none" xmlns="http://www.w3.org/2000/svg">
<mask id="path-1-outside-1_1_9777" maskUnits="userSpaceOnUse" x="3" y="61" width="625" height="117" fill="black">
<rect fill="white" x="3" y="61" width="625" height="117"/>
<path d="M22.59 112.28V176H4.86V112.28H22.59ZM84.8398 112.28V126.41H67.6498V176H50.0098V126.41H32.9998V112.28H84.8398ZM108.479 103.82L107.399 124.34H95.5188L94.2588 103.82H108.479ZM169.415 157.64C169.415 161.18 168.515 164.39 166.715 167.27C164.915 170.15 162.275 172.43 158.795 174.11C155.315 175.79 151.145 176.63 146.285 176.63C138.905 176.63 132.815 174.86 128.015 171.32C123.275 167.78 120.695 162.74 120.275 156.2H139.085C139.265 158.42 139.955 160.07 141.155 161.15C142.355 162.23 143.825 162.77 145.565 162.77C147.125 162.77 148.325 162.38 149.165 161.6C150.065 160.82 150.515 159.71 150.515 158.27C150.515 156.35 149.645 154.88 147.905 153.86C146.165 152.78 143.405 151.61 139.625 150.35C135.605 148.97 132.275 147.62 129.635 146.3C127.055 144.98 124.805 143 122.885 140.36C121.025 137.72 120.095 134.33 120.095 130.19C120.095 126.23 121.115 122.84 123.155 120.02C125.195 117.14 127.985 114.98 131.525 113.54C135.065 112.04 139.085 111.29 143.585 111.29C150.905 111.29 156.725 113.03 161.045 116.51C165.425 119.93 167.825 124.76 168.245 131H149.255C149.015 129.02 148.385 127.55 147.365 126.59C146.405 125.63 145.115 125.15 143.495 125.15C142.115 125.15 141.035 125.51 140.255 126.23C139.475 126.95 139.085 128.03 139.085 129.47C139.085 131.27 139.925 132.68 141.605 133.7C143.345 134.72 146.045 135.86 149.705 137.12C153.725 138.56 157.055 139.97 159.695 141.35C162.335 142.73 164.615 144.74 166.535 147.38C168.455 150.02 169.415 153.44 169.415 157.64ZM280.59 176L257.71 134.24H254.51V176H222.99V62.72H272.75C281.816 62.72 289.496 64.32 295.79 67.52C302.19 70.6133 306.99 74.9333 310.19 80.48C313.39 86.0267 314.99 92.2667 314.99 99.2C314.99 107.093 312.803 113.973 308.43 119.84C304.056 125.6 297.763 129.653 289.55 132L315.31 176H280.59ZM254.51 113.12H270.03C278.776 113.12 283.15 109.173 283.15 101.28C283.15 97.5467 282.03 94.6133 279.79 92.48C277.656 90.3467 274.403 89.28 270.03 89.28H254.51V113.12ZM367.041 87.84V106.56H403.681V130.4H367.041V150.88H408.481V176H335.521V62.72H408.481V87.84H367.041ZM502.385 157.12H462.225L455.985 176H422.865L464.305 63.2H500.625L541.905 176H508.625L502.385 157.12ZM494.545 133.44L482.385 96.64L470.065 133.44H494.545ZM590.697 152.16H626.057V176H559.177V62.72H590.697V152.16Z"/>
</mask>
<path d="M22.59 112.28H23.59V111.28H22.59V112.28ZM22.59 176V177H23.59V176H22.59ZM4.86 176H3.86V177H4.86V176ZM4.86 112.28V111.28H3.86V112.28H4.86ZM21.59 112.28V176H23.59V112.28H21.59ZM22.59 175H4.86V177H22.59V175ZM5.86 176V112.28H3.86V176H5.86ZM4.86 113.28H22.59V111.28H4.86V113.28ZM84.8398 112.28H85.8398V111.28H84.8398V112.28ZM84.8398 126.41V127.41H85.8398V126.41H84.8398ZM67.6498 126.41V125.41H66.6498V126.41H67.6498ZM67.6498 176V177H68.6498V176H67.6498ZM50.0098 176H49.0098V177H50.0098V176ZM50.0098 126.41H51.0098V125.41H50.0098V126.41ZM32.9998 126.41H31.9998V127.41H32.9998V126.41ZM32.9998 112.28V111.28H31.9998V112.28H32.9998ZM83.8398 112.28V126.41H85.8398V112.28H83.8398ZM84.8398 125.41H67.6498V127.41H84.8398V125.41ZM66.6498 126.41V176H68.6498V126.41H66.6498ZM67.6498 175H50.0098V177H67.6498V175ZM51.0098 176V126.41H49.0098V176H51.0098ZM50.0098 125.41H32.9998V127.41H50.0098V125.41ZM33.9998 126.41V112.28H31.9998V126.41H33.9998ZM32.9998 113.28H84.8398V111.28H32.9998V113.28ZM108.479 103.82L109.477 103.873L109.533 102.82H108.479V103.82ZM107.399 124.34V125.34H108.348L108.397 124.393L107.399 124.34ZM95.5188 124.34L94.5207 124.401L94.5783 125.34H95.5188V124.34ZM94.2588 103.82V102.82H93.1955L93.2607 103.881L94.2588 103.82ZM107.48 103.767L106.4 124.287L108.397 124.393L109.477 103.873L107.48 103.767ZM107.399 123.34H95.5188V125.34H107.399V123.34ZM96.5169 124.279L95.257 103.759L93.2607 103.881L94.5207 124.401L96.5169 124.279ZM94.2588 104.82H108.479V102.82H94.2588V104.82ZM166.715 167.27L167.563 167.8L166.715 167.27ZM158.795 174.11L158.36 173.209L158.795 174.11ZM128.015 171.32L127.417 172.121L127.422 172.125L128.015 171.32ZM120.275 156.2V155.2H119.209L119.277 156.264L120.275 156.2ZM139.085 156.2L140.082 156.119L140.007 155.2H139.085V156.2ZM141.155 161.15L140.486 161.893L141.155 161.15ZM149.165 161.6L148.51 160.844L148.497 160.856L148.485 160.867L149.165 161.6ZM147.905 153.86L147.378 154.71L147.389 154.716L147.399 154.723L147.905 153.86ZM139.625 150.35L139.3 151.296L139.309 151.299L139.625 150.35ZM129.635 146.3L129.18 147.19L129.188 147.194L129.635 146.3ZM122.885 140.36L122.068 140.936L122.072 140.942L122.076 140.948L122.885 140.36ZM123.155 120.02L123.965 120.606L123.971 120.598L123.155 120.02ZM131.525 113.54L131.902 114.466L131.909 114.464L131.915 114.461L131.525 113.54ZM161.045 116.51L160.418 117.289L160.424 117.294L160.43 117.298L161.045 116.51ZM168.245 131V132H169.315L169.243 130.933L168.245 131ZM149.255 131L148.262 131.12L148.369 132H149.255V131ZM147.365 126.59L146.658 127.297L146.669 127.308L146.68 127.318L147.365 126.59ZM140.255 126.23L139.577 125.495L140.255 126.23ZM141.605 133.7L141.086 134.555L141.093 134.559L141.099 134.563L141.605 133.7ZM149.705 137.12L150.042 136.178L150.031 136.174L149.705 137.12ZM159.695 141.35L160.158 140.464L159.695 141.35ZM168.415 157.64C168.415 161.001 167.564 164.026 165.867 166.74L167.563 167.8C169.467 164.754 170.415 161.359 170.415 157.64H168.415ZM165.867 166.74C164.18 169.439 161.694 171.6 158.36 173.209L159.23 175.011C162.856 173.26 165.65 170.861 167.563 167.8L165.867 166.74ZM158.36 173.209C155.046 174.809 151.032 175.63 146.285 175.63V177.63C151.258 177.63 155.584 176.771 159.23 175.011L158.36 173.209ZM146.285 175.63C139.067 175.63 133.199 173.901 128.609 170.515L127.422 172.125C132.431 175.819 138.743 177.63 146.285 177.63V175.63ZM128.614 170.519C124.135 167.174 121.677 162.419 121.273 156.136L119.277 156.264C119.714 163.061 122.415 168.386 127.417 172.121L128.614 170.519ZM120.275 157.2H139.085V155.2H120.275V157.2ZM138.088 156.281C138.281 158.658 139.034 160.586 140.486 161.893L141.824 160.407C140.876 159.554 140.249 158.182 140.082 156.119L138.088 156.281ZM140.486 161.893C141.885 163.152 143.599 163.77 145.565 163.77V161.77C144.051 161.77 142.826 161.308 141.824 160.407L140.486 161.893ZM145.565 163.77C147.285 163.77 148.763 163.338 149.846 162.333L148.485 160.867C147.888 161.422 146.965 161.77 145.565 161.77V163.77ZM149.82 162.356C150.985 161.346 151.515 159.934 151.515 158.27H149.515C149.515 159.486 149.145 160.294 148.51 160.844L149.82 162.356ZM151.515 158.27C151.515 155.974 150.438 154.186 148.411 152.997L147.399 154.723C148.852 155.574 149.515 156.726 149.515 158.27H151.515ZM148.433 153.01C146.59 151.867 143.74 150.667 139.941 149.401L139.309 151.299C143.071 152.553 145.74 153.693 147.378 154.71L148.433 153.01ZM139.95 149.404C135.955 148.033 132.67 146.699 130.082 145.406L129.188 147.194C131.881 148.541 135.255 149.907 139.3 151.296L139.95 149.404ZM130.091 145.41C127.667 144.17 125.533 142.301 123.694 139.772L122.076 140.948C124.077 143.699 126.443 145.79 129.18 147.19L130.091 145.41ZM123.703 139.784C121.991 137.355 121.095 134.182 121.095 130.19H119.095C119.095 134.478 120.059 138.085 122.068 140.936L123.703 139.784ZM121.095 130.19C121.095 126.41 122.065 123.233 123.965 120.606L122.345 119.434C120.165 122.447 119.095 126.05 119.095 130.19H121.095ZM123.971 120.598C125.892 117.887 128.523 115.841 131.902 114.466L131.148 112.614C127.447 114.119 124.498 116.393 122.339 119.442L123.971 120.598ZM131.915 114.461C135.313 113.021 139.197 112.29 143.585 112.29V110.29C138.974 110.29 134.818 111.059 131.135 112.619L131.915 114.461ZM143.585 112.29C150.75 112.29 156.325 113.992 160.418 117.289L161.672 115.731C157.125 112.068 151.06 110.29 143.585 110.29V112.29ZM160.43 117.298C164.556 120.52 166.844 125.071 167.247 131.067L169.243 130.933C168.806 124.449 166.294 119.34 161.661 115.722L160.43 117.298ZM168.245 130H149.255V132H168.245V130ZM150.248 130.88C149.991 128.764 149.301 127.038 148.051 125.862L146.68 127.318C147.47 128.062 148.039 129.276 148.262 131.12L150.248 130.88ZM148.072 125.883C146.889 124.7 145.325 124.15 143.495 124.15V126.15C144.905 126.15 145.921 126.56 146.658 127.297L148.072 125.883ZM143.495 124.15C141.941 124.15 140.592 124.558 139.577 125.495L140.933 126.965C141.479 126.462 142.289 126.15 143.495 126.15V124.15ZM139.577 125.495C138.526 126.465 138.085 127.854 138.085 129.47H140.085C140.085 128.206 140.424 127.435 140.933 126.965L139.577 125.495ZM138.085 129.47C138.085 131.656 139.141 133.374 141.086 134.555L142.124 132.845C140.71 131.986 140.085 130.884 140.085 129.47H138.085ZM141.099 134.563C142.927 135.634 145.703 136.8 149.38 138.066L150.031 136.174C146.387 134.92 143.763 133.806 142.111 132.837L141.099 134.563ZM149.368 138.061C153.362 139.492 156.646 140.884 159.232 142.236L160.158 140.464C157.464 139.056 154.089 137.628 150.042 136.179L149.368 138.061ZM159.232 142.236C161.723 143.538 163.888 145.441 165.726 147.968L167.344 146.792C165.342 144.039 162.948 141.922 160.158 140.464L159.232 142.236ZM165.726 147.968C167.491 150.394 168.415 153.591 168.415 157.64H170.415C170.415 153.289 169.42 149.646 167.344 146.792L165.726 147.968ZM280.59 176L279.713 176.48L279.997 177H280.59V176ZM257.71 134.24L258.587 133.76L258.302 133.24H257.71V134.24ZM254.51 134.24V133.24H253.51V134.24H254.51ZM254.51 176V177H255.51V176H254.51ZM222.99 176H221.99V177H222.99V176ZM222.99 62.72V61.72H221.99V62.72H222.99ZM295.79 67.52L295.336 68.4114L295.345 68.416L295.354 68.4203L295.79 67.52ZM310.19 80.48L311.056 79.9803L310.19 80.48ZM308.43 119.84L309.226 120.445L309.231 120.438L308.43 119.84ZM289.55 132L289.275 131.038L288.035 131.393L288.687 132.505L289.55 132ZM315.31 176V177H317.054L316.173 175.495L315.31 176ZM254.51 113.12H253.51V114.12H254.51V113.12ZM279.79 92.48L279.082 93.1871L279.091 93.1957L279.1 93.2041L279.79 92.48ZM254.51 89.28V88.28H253.51V89.28H254.51ZM281.467 175.52L258.587 133.76L256.833 134.721L279.713 176.48L281.467 175.52ZM257.71 133.24H254.51V135.24H257.71V133.24ZM253.51 134.24V176H255.51V134.24H253.51ZM254.51 175H222.99V177H254.51V175ZM223.99 176V62.72H221.99V176H223.99ZM222.99 63.72H272.75V61.72H222.99V63.72ZM272.75 63.72C281.702 63.72 289.218 65.3001 295.336 68.4114L296.243 66.6286C289.775 63.3398 281.93 61.72 272.75 61.72V63.72ZM295.354 68.4203C301.595 71.4364 306.235 75.6257 309.323 80.9797L311.056 79.9803C307.745 74.241 302.785 69.7903 296.225 66.6196L295.354 68.4203ZM309.323 80.9797C312.429 86.362 313.99 92.4271 313.99 99.2H315.99C315.99 92.1062 314.351 85.6914 311.056 79.9803L309.323 80.9797ZM313.99 99.2C313.99 106.896 311.862 113.562 307.628 119.242L309.231 120.438C313.744 114.384 315.99 107.291 315.99 99.2H313.99ZM307.633 119.235C303.413 124.793 297.319 128.74 289.275 131.038L289.824 132.962C298.207 130.567 304.699 126.407 309.226 120.445L307.633 119.235ZM288.687 132.505L314.447 176.505L316.173 175.495L290.413 131.495L288.687 132.505ZM315.31 175H280.59V177H315.31V175ZM254.51 114.12H270.03V112.12H254.51V114.12ZM270.03 114.12C274.533 114.12 278.098 113.106 280.54 110.902C283.001 108.681 284.15 105.409 284.15 101.28H282.15C282.15 105.045 281.111 107.692 279.2 109.418C277.268 111.16 274.273 112.12 270.03 112.12V114.12ZM284.15 101.28C284.15 97.334 282.958 94.1162 280.479 91.7559L279.1 93.2041C281.102 95.1104 282.15 97.7594 282.15 101.28H284.15ZM280.497 91.7729C278.106 89.3818 274.549 88.28 270.03 88.28V90.28C274.257 90.28 277.207 91.3116 279.082 93.1871L280.497 91.7729ZM270.03 88.28H254.51V90.28H270.03V88.28ZM253.51 89.28V113.12H255.51V89.28H253.51ZM367.041 87.84V86.84H366.041V87.84H367.041ZM367.041 106.56H366.041V107.56H367.041V106.56ZM403.681 106.56H404.681V105.56H403.681V106.56ZM403.681 130.4V131.4H404.681V130.4H403.681ZM367.041 130.4V129.4H366.041V130.4H367.041ZM367.041 150.88H366.041V151.88H367.041V150.88ZM408.481 150.88H409.481V149.88H408.481V150.88ZM408.481 176V177H409.481V176H408.481ZM335.521 176H334.521V177H335.521V176ZM335.521 62.72V61.72H334.521V62.72H335.521ZM408.481 62.72H409.481V61.72H408.481V62.72ZM408.481 87.84V88.84H409.481V87.84H408.481ZM366.041 87.84V106.56H368.041V87.84H366.041ZM367.041 107.56H403.681V105.56H367.041V107.56ZM402.681 106.56V130.4H404.681V106.56H402.681ZM403.681 129.4H367.041V131.4H403.681V129.4ZM366.041 130.4V150.88H368.041V130.4H366.041ZM367.041 151.88H408.481V149.88H367.041V151.88ZM407.481 150.88V176H409.481V150.88H407.481ZM408.481 175H335.521V177H408.481V175ZM336.521 176V62.72H334.521V176H336.521ZM335.521 63.72H408.481V61.72H335.521V63.72ZM407.481 62.72V87.84H409.481V62.72H407.481ZM408.481 86.84H367.041V88.84H408.481V86.84ZM502.385 157.12L503.334 156.806L503.107 156.12H502.385V157.12ZM462.225 157.12V156.12H461.502L461.275 156.806L462.225 157.12ZM455.985 176V177H456.707L456.934 176.314L455.985 176ZM422.865 176L421.926 175.655L421.432 177H422.865V176ZM464.305 63.2V62.2H463.607L463.366 62.8552L464.305 63.2ZM500.625 63.2L501.564 62.8563L501.324 62.2H500.625V63.2ZM541.905 176V177H543.335L542.844 175.656L541.905 176ZM508.625 176L507.675 176.314L507.902 177H508.625V176ZM494.545 133.44V134.44H495.928L495.494 133.126L494.545 133.44ZM482.385 96.64L483.334 96.3262L482.391 93.4715L481.436 96.3225L482.385 96.64ZM470.065 133.44L469.116 133.123L468.675 134.44H470.065V133.44ZM502.385 156.12H462.225V158.12H502.385V156.12ZM461.275 156.806L455.035 175.686L456.934 176.314L463.174 157.434L461.275 156.806ZM455.985 175H422.865V177H455.985V175ZM423.803 176.345L465.243 63.5448L463.366 62.8552L421.926 175.655L423.803 176.345ZM464.305 64.2H500.625V62.2H464.305V64.2ZM499.686 63.5437L540.966 176.344L542.844 175.656L501.564 62.8563L499.686 63.5437ZM541.905 175H508.625V177H541.905V175ZM509.574 175.686L503.334 156.806L501.435 157.434L507.675 176.314L509.574 175.686ZM495.494 133.126L483.334 96.3262L481.435 96.9537L493.595 133.754L495.494 133.126ZM481.436 96.3225L469.116 133.123L471.013 133.757L483.333 96.9575L481.436 96.3225ZM470.065 134.44H494.545V132.44H470.065V134.44ZM590.697 152.16H589.697V153.16H590.697V152.16ZM626.057 152.16H627.057V151.16H626.057V152.16ZM626.057 176V177H627.057V176H626.057ZM559.177 176H558.177V177H559.177V176ZM559.177 62.72V61.72H558.177V62.72H559.177ZM590.697 62.72H591.697V61.72H590.697V62.72ZM590.697 153.16H626.057V151.16H590.697V153.16ZM625.057 152.16V176H627.057V152.16H625.057ZM626.057 175H559.177V177H626.057V175ZM560.177 176V62.72H558.177V176H560.177ZM559.177 63.72H590.697V61.72H559.177V63.72ZM589.697 62.72V152.16H591.697V62.72H589.697Z" fill="white" mask="url(#path-1-outside-1_1_9777)"/>
<path d="M233.041 30H231.13L223.444 18.303V30H221.533V15.195H223.444L231.13 26.913V15.195H233.041V30ZM247.097 15.006C248.469 15.006 249.701 15.328 250.793 15.972C251.899 16.616 252.767 17.519 253.397 18.681C254.027 19.829 254.342 21.131 254.342 22.587C254.342 24.043 254.027 25.352 253.397 26.514C252.767 27.662 251.899 28.558 250.793 29.202C249.701 29.846 248.469 30.168 247.097 30.168C245.725 30.168 244.479 29.846 243.359 29.202C242.253 28.558 241.385 27.662 240.755 26.514C240.125 25.352 239.81 24.043 239.81 22.587C239.81 21.131 240.125 19.829 240.755 18.681C241.385 17.519 242.253 16.616 243.359 15.972C244.479 15.328 245.725 15.006 247.097 15.006ZM247.097 16.791C246.075 16.791 245.158 17.029 244.346 17.505C243.548 17.967 242.918 18.639 242.456 19.521C242.008 20.389 241.784 21.411 241.784 22.587C241.784 23.749 242.008 24.771 242.456 25.653C242.918 26.535 243.548 27.214 244.346 27.69C245.158 28.152 246.075 28.383 247.097 28.383C248.105 28.383 249.008 28.145 249.806 27.669C250.618 27.193 251.248 26.521 251.696 25.653C252.158 24.771 252.389 23.749 252.389 22.587C252.389 21.411 252.158 20.389 251.696 19.521C251.248 18.639 250.618 17.967 249.806 17.505C249.008 17.029 248.105 16.791 247.097 16.791ZM270.197 15.195V16.749H266.018V30H264.107V16.749H259.928V15.195H270.197ZM294.758 15.195V16.749H290.579V30H288.668V16.749H284.489V15.195H294.758ZM302.768 16.749V21.81H308.396V23.28H302.768V28.446H309.026V30H300.857V15.195H309.026V16.749H302.768ZM330.506 15.447V30H328.595V18.387L323.954 30H322.253L317.591 18.429V30H315.68V15.447H317.969L323.135 27.669L328.217 15.447H330.506ZM339.674 24.036V30H337.763V15.195H342.467C344.161 15.195 345.428 15.594 346.268 16.392C347.108 17.176 347.528 18.254 347.528 19.626C347.528 21.012 347.094 22.097 346.226 22.881C345.358 23.651 344.105 24.036 342.467 24.036H339.674ZM342.299 22.44C343.461 22.44 344.294 22.195 344.798 21.705C345.316 21.215 345.575 20.522 345.575 19.626C345.575 18.702 345.316 18.002 344.798 17.526C344.294 17.036 343.461 16.791 342.299 16.791H339.674V22.44H342.299ZM355.871 28.509H361.121V30H353.96V15.195H355.871V28.509ZM375.939 26.577H369.429L368.19 30H366.132L371.613 15.468H373.776L379.236 30H377.178L375.939 26.577ZM375.393 25.086L372.684 17.61L369.975 25.086H375.393ZM394.442 15.195V16.749H390.263V30H388.352V16.749H384.173V15.195H394.442ZM402.453 16.749V21.81H408.081V23.28H402.453V28.446H408.711V30H400.542V15.195H408.711V16.749H402.453Z" fill="white"/>
<path d="M388.344 228.416C387.128 228.4 386.272 228.624 385.776 229.088C385.296 229.536 385.056 230.296 385.056 231.368V231.896H388.344V233.384H385.056V245H383.376V233.384H381.432V231.896H383.376V231.248C383.376 229.776 383.776 228.672 384.576 227.936C385.376 227.2 386.632 226.864 388.344 226.928V228.416ZM396.791 231.728C398.039 231.728 399.151 232 400.127 232.544C401.119 233.072 401.895 233.848 402.455 234.872C403.015 235.88 403.295 237.072 403.295 238.448C403.295 239.824 403.015 241.016 402.455 242.024C401.895 243.032 401.119 243.808 400.127 244.352C399.151 244.896 398.039 245.168 396.791 245.168C395.543 245.168 394.423 244.896 393.431 244.352C392.439 243.808 391.655 243.032 391.079 242.024C390.519 241 390.239 239.808 390.239 238.448C390.239 237.072 390.519 235.88 391.079 234.872C391.655 233.848 392.439 233.072 393.431 232.544C394.423 232 395.543 231.728 396.791 231.728ZM396.791 233.192C395.927 233.192 395.127 233.384 394.391 233.768C393.655 234.152 393.063 234.744 392.615 235.544C392.167 236.328 391.943 237.296 391.943 238.448C391.943 239.6 392.167 240.568 392.615 241.352C393.063 242.136 393.655 242.72 394.391 243.104C395.127 243.488 395.927 243.68 396.791 243.68C397.639 243.68 398.423 243.488 399.143 243.104C399.879 242.72 400.471 242.136 400.919 241.352C401.367 240.568 401.591 239.6 401.591 238.448C401.591 237.296 401.367 236.328 400.919 235.544C400.471 234.744 399.879 234.152 399.143 233.768C398.423 233.384 397.639 233.192 396.791 233.192ZM408.012 234.608C408.396 233.664 409.012 232.936 409.86 232.424C410.708 231.912 411.74 231.656 412.956 231.656V233.48H412.404C411.14 233.48 410.092 233.824 409.26 234.512C408.428 235.184 408.012 236.288 408.012 237.824V245H406.308V231.896H408.012V234.608Z" fill="white"/>
<path d="M465.6 216.76L458.68 245H451.72L446.44 224.52L441.12 245H434.2L427.28 216.76H433.4L437.72 238.64L443.32 216.76H449.52L455.16 238.64L459.48 216.76H465.6ZM479.098 221.24V228.56H489.098V232.88H479.098V240.48H490.298V245H473.458V216.76H490.298V221.24H479.098ZM514.234 230.44C515.941 230.787 517.301 231.6 518.314 232.88C519.354 234.133 519.874 235.613 519.874 237.32C519.874 239.693 519.074 241.573 517.474 242.96C515.901 244.32 513.607 245 510.594 245H498.474V216.76H510.354C513.207 216.76 515.394 217.387 516.914 218.64C518.461 219.893 519.234 221.653 519.234 223.92C519.234 225.68 518.767 227.12 517.834 228.24C516.927 229.36 515.727 230.093 514.234 230.44ZM504.114 228.6H509.194C510.607 228.6 511.674 228.293 512.394 227.68C513.141 227.04 513.514 226.133 513.514 224.96C513.514 223.787 513.154 222.88 512.434 222.24C511.714 221.6 510.607 221.28 509.114 221.28H504.114V228.6ZM509.474 240.4C510.967 240.4 512.114 240.08 512.914 239.44C513.714 238.773 514.114 237.813 514.114 236.56C514.114 235.307 513.701 234.347 512.874 233.68C512.074 232.987 510.927 232.64 509.434 232.64H504.114V240.4H509.474ZM541.146 207.12L530.306 252.24H524.866L535.706 207.12H541.146ZM564.338 239.32H553.018L551.018 245H545.058L555.458 217.08H561.898L572.258 245H566.298L564.338 239.32ZM562.818 235.04L558.658 223.12L554.498 235.04H562.818ZM584.942 234.52V245H579.302V216.76H589.582C592.916 216.76 595.422 217.56 597.102 219.16C598.809 220.76 599.662 222.933 599.662 225.68C599.662 228.373 598.782 230.52 597.022 232.12C595.289 233.72 592.809 234.52 589.582 234.52H584.942ZM588.982 230C592.289 230 593.942 228.56 593.942 225.68C593.942 224.267 593.556 223.187 592.782 222.44C592.009 221.693 590.742 221.32 588.982 221.32H584.942V230H588.982ZM612.966 234.52V245H607.326V216.76H617.606C620.939 216.76 623.446 217.56 625.126 219.16C626.832 220.76 627.686 222.933 627.686 225.68C627.686 228.373 626.806 230.52 625.046 232.12C623.312 233.72 620.832 234.52 617.606 234.52H612.966ZM617.006 230C620.312 230 621.966 228.56 621.966 225.68C621.966 224.267 621.579 223.187 620.806 222.44C620.032 221.693 618.766 221.32 617.006 221.32H612.966V230H617.006Z" fill="white"/>
</svg>
