<svg width="17" height="10" viewBox="0 0 17 10" fill="none" xmlns="http://www.w3.org/2000/svg">
<g clip-path="url(#clip0_8_53)">
<path d="M12.683 9.24985C12.4162 9.13191 12.3034 8.99343 12.3593 8.79036C12.3906 8.67673 12.4744 8.56641 12.5606 8.47995C13.3312 7.70608 14.1074 6.93784 14.8823 6.16827C15.1328 5.91981 15.3847 5.67268 15.6768 5.38446H15.4316C10.557 5.38446 5.68275 5.38446 0.808163 5.38446C0.681067 5.38446 0.553637 5.38844 0.426541 5.38347C0.171349 5.37287 -0.000663503 5.21286 1.92384e-06 4.99355C0.000667351 4.78153 0.164695 4.62517 0.411901 4.60463C0.466799 4.59999 0.522362 4.60297 0.577926 4.60297C5.52438 4.60297 10.4708 4.60297 15.417 4.60297H15.6598C15.589 4.5281 15.5464 4.4804 15.5011 4.43567C14.508 3.44746 13.5148 2.45959 12.5217 1.47104C12.3254 1.27592 12.2934 1.07483 12.4272 0.901241C12.5569 0.73295 12.7849 0.699822 12.9555 0.827365C13.0084 0.866788 13.057 0.912505 13.1039 0.958884C14.337 2.18297 15.57 3.40705 16.8007 4.63345C16.8776 4.70998 16.9341 4.80638 17 4.8935V5.09161C16.9218 5.19033 16.8529 5.298 16.7644 5.38645C15.5574 6.59032 14.3486 7.79221 13.1362 8.99078C13.0334 9.09216 12.9013 9.16404 12.7829 9.24951H12.6834L12.683 9.24985Z" fill="white"/>
</g>
<defs>
<clipPath id="clip0_8_53">
<rect width="17" height="8.5" fill="white" transform="translate(0 0.75)"/>
</clipPath>
</defs>
</svg>
