<svg width="17" height="10" viewBox="0 0 17 10" fill="none" xmlns="http://www.w3.org/2000/svg">
<g clip-path="url(#clip0_22_3843)">
<path d="M4.31695 9.24985C4.58379 9.13191 4.69658 8.99343 4.64069 8.79036C4.60941 8.67673 4.52557 8.56641 4.43939 8.47995C3.66883 7.70608 2.89261 6.93784 2.11772 6.16827C1.86719 5.91981 1.61532 5.67268 1.3232 5.38446H1.56841C6.443 5.38446 11.3172 5.38446 16.1918 5.38446C16.3189 5.38446 16.4464 5.38844 16.5735 5.38347C16.8287 5.37287 17.0007 5.21286 17 4.99355C16.9993 4.78153 16.8353 4.62517 16.5881 4.60463C16.5332 4.59999 16.4776 4.60297 16.4221 4.60297C11.4756 4.60297 6.52917 4.60297 1.58305 4.60297H1.34017C1.41103 4.5281 1.45362 4.4804 1.49887 4.43567C2.49202 3.44746 3.48517 2.45959 4.47832 1.47104C4.67462 1.27592 4.70656 1.07483 4.57281 0.901241C4.44305 0.73295 4.21514 0.699822 4.04446 0.827365C3.99156 0.866788 3.94298 0.912505 3.89607 0.958884C2.66304 2.18297 1.43 3.40705 0.199291 4.63345C0.122435 4.70998 0.0658722 4.80638 -3.8147e-06 4.8935V5.09161C0.0781841 5.19033 0.147055 5.298 0.235558 5.38645C1.44264 6.59032 2.65139 7.79221 3.8638 8.99078C3.96661 9.09216 4.09869 9.16404 4.21714 9.24951H4.31662L4.31695 9.24985Z" fill="white"/>
</g>
<defs>
<clipPath id="clip0_22_3843">
<rect width="17" height="8.5" fill="white" transform="matrix(-1 0 0 1 17 0.75)"/>
</clipPath>
</defs>
</svg>
