<svg width="28" height="29" viewBox="0 0 28 29" fill="none" xmlns="http://www.w3.org/2000/svg">
<g clip-path="url(#clip0_36_7539)">
<path d="M23.3922 17.1709C24.6602 18.4382 25.8938 19.6703 27.1266 20.9032C27.3167 21.0925 27.5082 21.2811 27.6946 21.4733C28.1914 21.9848 28.0711 22.5638 27.4062 22.8258C26.3767 23.2316 25.3398 23.6183 24.3168 24.0403C24.1421 24.1122 23.9616 24.2934 23.8882 24.4681C23.4802 25.4448 23.1052 26.434 22.7185 27.4196C22.3824 28.2767 21.8585 28.3904 21.2149 27.7469C19.5506 26.0818 17.8855 24.4175 16.2205 22.7539C16.1522 22.6856 16.0796 22.6225 15.9812 22.5315C14.6743 23.7093 13.3468 23.7255 12.0237 22.5286C11.9063 22.6401 11.8087 22.7275 11.7169 22.8199C10.0688 24.4666 8.42205 26.1148 6.7746 27.7615C6.14791 28.3875 5.61589 28.2701 5.29007 27.4372C4.9004 26.4406 4.51955 25.4397 4.11007 24.4512C4.04109 24.2854 3.87011 24.1122 3.70426 24.0439C2.69231 23.6271 1.66715 23.2419 0.648594 22.8405C-0.0896385 22.5499 -0.208519 21.9929 0.347724 21.4345C1.66568 20.1136 2.98511 18.7934 4.3082 17.4776C4.40213 17.3844 4.52982 17.3257 4.68246 17.2245C4.30013 16.9427 4.0154 16.7372 3.73582 16.5251C2.89044 15.8852 2.56022 14.8814 2.86769 13.8599C3.03941 13.2897 3.25516 12.7312 3.39752 12.1537C3.4665 11.8741 3.46797 11.5505 3.39972 11.2709C3.26176 10.7051 3.04822 10.1584 2.87797 9.59998C2.55068 8.52639 2.88604 7.52178 3.79085 6.85253C4.2517 6.51203 4.73529 6.20015 5.17339 5.83324C5.38546 5.65565 5.57186 5.40395 5.67533 5.14784C5.89694 4.59673 6.05178 4.01848 6.24478 3.4549C6.60069 2.41726 7.47761 1.7869 8.56955 1.77736C9.15515 1.77222 9.74221 1.80304 10.3249 1.76415C10.6008 1.74581 10.8987 1.65041 11.1328 1.50364C11.6171 1.20057 12.064 0.837325 12.53 0.504167C13.4627 -0.162884 14.5216 -0.168755 15.4558 0.490958C15.9137 0.813843 16.3459 1.17782 16.8237 1.46768C17.0893 1.62913 17.4195 1.7392 17.7292 1.76342C18.4564 1.81992 19.1969 1.74727 19.9168 1.84414C20.8384 1.96889 21.4402 2.56476 21.7513 3.43361C21.9561 4.006 22.1094 4.59747 22.3325 5.16178C22.4294 5.40762 22.6092 5.64905 22.8132 5.81856C23.2527 6.18401 23.7356 6.49735 24.1957 6.83858C25.1299 7.53132 25.4594 8.5374 25.1137 9.65135C24.9442 10.1973 24.7358 10.733 24.5979 11.2863C24.5311 11.5542 24.5296 11.8668 24.5979 12.1346C24.771 12.8171 25.0477 13.4746 25.1959 14.1607C25.3992 15.103 25.0477 15.8845 24.3102 16.4892C24.0291 16.7196 23.7261 16.9243 23.3922 17.1716V17.1709ZM9.66883 3.24429C9.3276 3.24429 8.98563 3.23695 8.6444 3.24575C8.08742 3.26043 7.79683 3.47764 7.61851 4.0082C7.42478 4.58426 7.23985 5.16398 7.04759 5.74077C6.88541 6.22877 6.60069 6.63018 6.18387 6.93545C5.70174 7.28769 5.21815 7.63846 4.73749 7.99216C4.24729 8.35321 4.13869 8.68196 4.32141 9.25949C4.48652 9.78124 4.65017 10.3037 4.82922 10.8211C5.03689 11.4206 5.03323 12.0113 4.82482 12.6102C4.64136 13.1385 4.47038 13.6713 4.3038 14.2048C4.14529 14.714 4.26344 15.0758 4.68833 15.3921C5.1477 15.7341 5.61002 16.0724 6.0782 16.4026C6.575 16.7526 6.91036 17.2142 7.09309 17.7925C7.26847 18.3494 7.44606 18.9057 7.63318 19.4582C7.79463 19.9338 8.08963 20.1473 8.5879 20.1539C9.17349 20.1613 9.75909 20.1591 10.344 20.1554C10.9362 20.1517 11.4718 20.3146 11.9503 20.6669C12.3818 20.9846 12.8162 21.2994 13.2507 21.6142C13.8399 22.0413 14.1709 22.0391 14.7689 21.6047C15.2129 21.2825 15.6393 20.9318 16.1067 20.6478C16.4318 20.4504 16.8039 20.2552 17.1715 20.2163C17.9075 20.1385 18.6553 20.1693 19.3979 20.1547C19.919 20.1436 20.2081 19.9389 20.3761 19.4406C20.5596 18.8991 20.7342 18.3553 20.9052 17.8093C21.0909 17.2179 21.4314 16.7475 21.9414 16.3916C22.4015 16.0709 22.8513 15.7363 23.3012 15.4016C23.7488 15.0692 23.8611 14.7206 23.6945 14.1857C23.536 13.6749 23.3856 13.1605 23.2014 12.6586C22.9688 12.0238 22.9644 11.4037 23.1955 10.7682C23.3782 10.2656 23.5301 9.75189 23.6894 9.24114C23.8618 8.68857 23.7503 8.34513 23.2836 7.9995C22.8425 7.67295 22.4022 7.34639 21.9509 7.03452C21.4277 6.67274 21.0857 6.18841 20.8979 5.5852C20.7533 5.12069 20.6 4.65984 20.4503 4.1968C20.1956 3.40793 19.9637 3.24135 19.122 3.24062C18.6098 3.24062 18.0976 3.23181 17.5854 3.24282C17.013 3.25529 16.5089 3.07917 16.0524 2.74455C15.6195 2.42753 15.185 2.11345 14.7506 1.79864C14.1445 1.35981 13.8583 1.36128 13.2396 1.80965C12.8052 2.12373 12.3723 2.44001 11.9378 2.75482C11.4902 3.07917 10.9971 3.25749 10.4379 3.24135C10.1818 3.23401 9.92567 3.23988 9.66956 3.24135L9.66883 3.24429ZM6.29321 25.9556C7.73445 24.5158 9.17423 23.0775 10.6045 21.648C10.0145 21.648 9.37016 21.6539 8.72512 21.6465C7.4057 21.6326 6.58087 21.0198 6.17506 19.765C6.01215 19.2601 5.84484 18.7567 5.68266 18.2614C4.48139 19.4634 3.30432 20.6419 2.11772 21.8293C2.93374 22.1463 3.7681 22.4809 4.61054 22.7935C4.98039 22.9307 5.21668 23.1575 5.35391 23.5317C5.66432 24.3764 6.00261 25.21 6.29321 25.9541V25.9556ZM21.6706 26.048C21.9942 25.2247 22.3333 24.4167 22.6275 23.5926C22.7758 23.1766 23.0238 22.9293 23.4362 22.7796C24.2669 22.4787 25.0851 22.1411 25.8666 21.8351C24.6808 20.6507 23.503 19.4751 22.312 18.2863C22.1388 18.8095 21.9619 19.3621 21.7741 19.911C21.4182 20.9509 20.6939 21.5453 19.5953 21.6245C18.9767 21.6693 18.3522 21.6407 17.7307 21.6495C17.5935 21.6509 17.4555 21.6678 17.3087 21.6788C18.7757 23.1487 20.2118 24.587 21.6699 26.048H21.6706Z" fill="white"/>
<path d="M9.89532 16.247C10.048 15.3576 10.2021 14.3714 10.3921 13.3924C10.4589 13.0497 10.4156 12.8112 10.1419 12.5617C9.45722 11.938 8.81072 11.2724 8.14366 10.6296C7.89343 10.3889 7.70263 10.1298 7.81931 9.76218C7.93306 9.40481 8.20164 9.26758 8.56342 9.21988C9.5284 9.09293 10.4897 8.93663 11.454 8.8038C11.7027 8.76931 11.862 8.68199 11.9779 8.43542C12.3911 7.55482 12.8402 6.69037 13.2629 5.81418C13.4177 5.49276 13.6232 5.25647 14.0011 5.25647C14.3783 5.25647 14.586 5.4913 14.7408 5.81271C15.1583 6.67863 15.6023 7.53134 16.0081 8.40313C16.1343 8.67391 16.3039 8.77151 16.5849 8.80894C17.5616 8.93736 18.5347 9.09513 19.5114 9.23089C19.849 9.27786 20.0787 9.44223 20.1836 9.76292C20.2871 10.0792 20.1623 10.3346 19.9385 10.5533C19.2238 11.2519 18.5149 11.9578 17.7862 12.6425C17.5925 12.8245 17.5404 12.9998 17.5866 13.2493C17.7539 14.1586 17.9139 15.0692 18.0614 15.9821C18.0973 16.2067 18.1245 16.454 18.0672 16.6668C17.9498 17.0997 17.4413 17.2605 16.9826 17.0242C16.0844 16.5618 15.1892 16.0937 14.302 15.6101C14.084 15.4912 13.9189 15.4963 13.7032 15.6137C12.805 16.1017 11.9016 16.5802 10.9895 17.0418C10.42 17.3302 9.87037 16.9684 9.89605 16.2478L9.89532 16.247ZM14.0033 7.66196C13.6621 8.34883 13.3443 8.94837 13.064 9.56552C12.8805 9.96912 12.5863 10.1408 12.1614 10.1907C11.5017 10.2678 10.8464 10.3801 10.2241 10.4725C10.6255 10.9033 10.9895 11.3671 11.4276 11.7443C11.9324 12.1794 12.0836 12.6469 11.9075 13.2926C11.757 13.843 11.7108 14.422 11.6081 15.0516C12.2707 14.7038 12.8688 14.4081 13.4485 14.0793C13.8272 13.865 14.1699 13.8621 14.5485 14.0742C15.1371 14.4029 15.741 14.7038 16.3963 15.0465C16.2723 14.2958 16.1813 13.6097 16.0389 12.9345C15.9523 12.5221 16.0903 12.2396 16.3692 11.9593C16.8484 11.4779 17.3019 10.9715 17.773 10.4689C17.1478 10.3779 16.4807 10.27 15.8107 10.1878C15.4159 10.1394 15.1312 9.9794 14.9565 9.60514C14.6645 8.97919 14.3482 8.36424 14.0018 7.6627L14.0033 7.66196Z" fill="white"/>
</g>
<defs>
<clipPath id="clip0_36_7539">
<rect width="28" height="28.1585" fill="white"/>
</clipPath>
</defs>
</svg>
