<svg width="23" height="24" viewBox="0 0 23 24" fill="none" xmlns="http://www.w3.org/2000/svg">
<g clip-path="url(#clip0_19_2)">
<path d="M0 6.22974C0.022043 6.14339 0.0463821 6.05795 0.0652104 5.97069C0.152923 5.55868 0.326971 5.1871 0.621795 4.88533C1.29411 4.19729 1.96917 3.51153 2.65434 2.83635C3.24858 2.25073 3.96728 2.18045 4.73878 2.37979C5.04463 2.45879 5.30271 2.62185 5.49926 2.86345C6.15871 3.67505 6.81266 4.49079 7.46246 5.3102C7.65672 5.55501 7.83765 5.8113 8.01262 6.07036C8.52925 6.83511 8.52466 7.6118 8.03834 8.38666C7.90057 8.60575 7.74397 8.81474 7.58186 9.01638C7.08636 9.63231 6.98808 10.2804 7.66085 10.9436C8.42776 11.6997 9.16574 12.4846 9.9276 13.2457C10.8405 14.1579 11.7618 15.0623 12.6871 15.9625C13.1826 16.4448 13.7465 16.4843 14.3201 16.0916C14.553 15.9322 14.7725 15.754 15.0025 15.59C15.8273 15.003 16.7696 14.9906 17.5742 15.5937C18.5267 16.3079 19.4561 17.0529 20.4021 17.7764C21.3123 18.4727 21.4281 19.4997 21.1218 20.2433C21.0253 20.4766 20.8724 20.7013 20.6979 20.8845C20.1138 21.4986 19.4956 22.0806 18.9133 22.696C18.2401 23.408 17.3951 23.5563 16.4808 23.4815C15.0691 23.3657 13.8265 22.7691 12.6292 22.0677C10.9338 21.0742 9.42704 19.8304 7.99517 18.4952C6.12703 16.7539 4.34476 14.93 2.79211 12.8957C1.76527 11.5504 0.864268 10.1288 0.313653 8.51435C0.182314 8.12853 0.103786 7.72479 0.000918457 7.32933C0.000918457 6.9628 0.000918457 6.59581 0.000918457 6.22928L0 6.22974ZM7.52262 7.24665C7.54604 7.24022 7.56946 7.23333 7.59243 7.2269C7.50793 6.99725 7.47119 6.73222 7.33112 6.54482C6.59911 5.56741 5.85562 4.5978 5.08733 3.64887C4.52662 2.95623 3.78909 2.89881 3.13791 3.5074C2.48075 4.12196 1.85253 4.77097 1.24864 5.43788C1.06082 5.64503 0.929479 5.94956 0.88126 6.22836C0.766452 6.8916 0.861513 7.55163 1.07643 8.18962C1.53933 9.56342 2.27134 10.7944 3.13102 11.9482C4.92155 14.3522 6.9867 16.5045 9.23187 18.4851C10.6596 19.7445 12.1613 20.907 13.8618 21.7848C14.7403 22.2386 15.6546 22.5964 16.6548 22.6602C17.1802 22.6937 17.7088 22.6634 18.1129 22.267C18.81 21.5831 19.492 20.8831 20.1744 20.1841C20.3585 19.9953 20.4021 19.7555 20.4168 19.491C20.443 19.0128 20.2038 18.6927 19.8598 18.424C18.9092 17.6822 17.9586 16.94 16.9988 16.2101C16.6043 15.9102 16.0326 15.9106 15.6257 16.1881C15.3419 16.3814 15.0668 16.5872 14.7908 16.7911C14.0777 17.3175 12.8915 17.3859 12.1126 16.5909C11.1459 15.6034 10.1407 14.6535 9.16345 13.6756C8.38597 12.898 7.6287 12.1002 6.8572 11.3166C6.2253 10.6749 6.19361 9.66171 6.5982 9.00857C6.79842 8.68521 7.02344 8.3761 7.25122 8.07112C7.43537 7.82446 7.57406 7.57001 7.52262 7.24665Z" fill="white"/>
<path d="M12.054 0.499971C12.3332 0.529367 12.6124 0.559681 12.8917 0.587699C15.8514 0.88074 18.3119 2.1489 20.2738 4.38115C21.6923 5.99471 22.5318 7.88064 22.8551 9.99669C22.9331 10.5088 22.957 11.0292 22.9993 11.5464C23.0158 11.7522 22.8197 11.9754 22.6131 12.0053C22.3963 12.0365 22.1942 11.8927 22.1653 11.6497C22.1153 11.2258 22.0992 10.7977 22.05 10.3738C21.8315 8.49566 21.1431 6.80539 19.9684 5.32412C18.3321 3.26043 16.2183 1.97666 13.6182 1.52699C13.079 1.43375 12.5261 1.41492 11.9792 1.36853C11.6843 1.34373 11.4786 1.18802 11.5149 0.949177C11.5351 0.815977 11.6586 0.698853 11.7358 0.57392C11.7509 0.549577 11.7647 0.524315 11.7789 0.499512C11.8708 0.499512 11.9622 0.499512 12.054 0.499512V0.499971Z" fill="white"/>
<path d="M12.2937 3.11478C16.3244 3.31826 19.5977 6.20181 20.2884 10.162C20.3692 10.6264 20.394 11.1013 20.4349 11.5721C20.4524 11.7719 20.2338 11.9914 20.0253 12.008C19.814 12.0245 19.6446 11.8959 19.6156 11.669C19.5546 11.1931 19.5298 10.7113 19.4476 10.2392C19.1486 8.52455 18.3248 7.10298 17.0408 5.93036C15.6516 4.66174 14.0163 4.02238 12.1504 3.93511C12.0365 3.9296 11.9222 3.91536 11.8106 3.89332C11.5948 3.85106 11.5135 3.69398 11.508 3.49372C11.5025 3.30264 11.6462 3.13637 11.8368 3.11846C11.9879 3.10422 12.1412 3.1157 12.2937 3.1157V3.11478Z" fill="white"/>
<path d="M17.8732 11.409C17.8618 11.4944 17.8526 11.5854 17.8374 11.6754C17.803 11.8816 17.6932 12.001 17.4719 12.0125C17.2344 12.0249 17.1123 11.8981 17.0746 11.6873C17.0278 11.4251 17.0062 11.1582 16.9667 10.8941C16.6214 8.581 14.8731 6.85399 12.5623 6.5412C12.3506 6.51272 12.1388 6.48608 11.9271 6.4576C11.6277 6.41718 11.4978 6.29041 11.5047 6.04744C11.5115 5.80538 11.6764 5.64784 11.9671 5.64967C12.6518 5.65381 13.3223 5.77139 13.956 6.02631C16.2214 6.93896 17.5169 8.61177 17.8319 11.0379C17.8475 11.1587 17.859 11.2804 17.8737 11.4085L17.8732 11.409Z" fill="white"/>
<path d="M15.3031 11.5072C15.3123 11.8209 15.1883 11.9895 14.9348 12.0102C14.668 12.0318 14.5192 11.8797 14.4852 11.5513C14.3304 10.0714 13.3881 9.14545 11.914 9.02557C11.6485 9.00398 11.4938 8.84506 11.5039 8.60347C11.5135 8.36876 11.6945 8.20708 11.9443 8.21075C13.7592 8.23648 15.2507 9.70076 15.3031 11.5077V11.5072Z" fill="white"/>
</g>
<defs>
<clipPath id="clip0_19_2">
<rect width="23" height="23" fill="white" transform="translate(0 0.5)"/>
</clipPath>
</defs>
</svg>
