<svg width="28" height="27" viewBox="0 0 28 27" fill="none" xmlns="http://www.w3.org/2000/svg">
<path d="M27.9996 16.9864C27.8298 17.2717 27.5712 17.3693 27.243 17.3677C25.5665 17.3617 23.8901 17.365 22.213 17.365H21.881C21.8761 17.4696 21.8679 17.564 21.8673 17.6578C21.8662 18.3034 21.869 18.9495 21.8657 19.5951C21.8635 19.9791 21.7019 20.0956 21.3282 19.9855C20.9628 19.8782 20.5935 19.7784 20.2358 19.6501C19.9739 19.5562 19.7334 19.5525 19.4704 19.6463C19.1033 19.7768 18.7258 19.8782 18.3516 19.9882C17.9922 20.0939 17.8323 19.9785 17.8312 19.6129C17.8295 18.8778 17.8312 18.1427 17.8312 17.3644C17.606 17.3644 17.389 17.3445 17.1776 17.3688C16.7261 17.4205 16.4308 17.2523 16.1848 16.8699C15.7514 16.1968 15.2666 15.5561 14.8031 14.9019C14.7538 14.8323 14.6984 14.7665 14.6163 14.6603V25.7994H24.4527C24.4527 25.6916 24.4527 25.5875 24.4527 25.4834C24.4527 23.4027 24.4516 21.3214 24.4538 19.2407C24.4538 18.7931 24.7069 18.5283 25.1014 18.5488C25.3857 18.5634 25.6153 18.7721 25.6493 19.0536C25.6602 19.142 25.6597 19.2326 25.6597 19.3222C25.6597 21.6186 25.6602 23.9145 25.6597 26.2109C25.6597 26.8241 25.4827 26.9999 24.8691 26.9999C17.6252 26.9999 10.3812 26.9999 3.13674 26.9999C2.52148 26.9999 2.34342 26.8241 2.34287 26.2136C2.34233 23.9625 2.34287 21.7108 2.34287 19.4597C2.34287 19.3702 2.34233 19.2801 2.35109 19.1911C2.37958 18.9101 2.60092 18.6912 2.88033 18.6615C3.14824 18.6335 3.41286 18.7882 3.49833 19.0487C3.53887 19.1733 3.54819 19.3125 3.54819 19.4446C3.55093 21.4536 3.55038 23.4631 3.55038 25.472C3.55038 25.5772 3.55038 25.6829 3.55038 25.8027H13.3879V14.6668C13.3041 14.7725 13.2433 14.8426 13.1902 14.9175C12.7157 15.5863 12.2303 16.2475 11.7745 16.9287C11.5608 17.248 11.3066 17.4146 10.9159 17.3666C10.8091 17.3537 10.6995 17.3644 10.5483 17.3644C10.5483 17.4745 10.5483 17.5688 10.5483 17.6627C10.5483 18.3083 10.55 18.9544 10.5478 19.5999C10.5461 19.9758 10.3697 20.0983 10.0065 19.9796C9.57531 19.8388 9.14797 19.6862 8.71351 19.5579C8.59352 19.5223 8.44395 19.5271 8.32288 19.5627C7.88841 19.6922 7.46108 19.8459 7.02881 19.9839C6.6705 20.0983 6.51436 19.9839 6.51326 19.608C6.51107 18.8735 6.51271 18.1384 6.51271 17.3634H6.1829C4.38807 17.3634 2.5927 17.3634 0.79788 17.3623C0.680635 17.3623 0.557913 17.3623 0.446695 17.331C0.070856 17.2269 -0.0754253 16.9551 0.0368881 16.5857C0.062638 16.501 0.102085 16.4185 0.14701 16.3419C0.881704 15.0739 1.62188 13.8092 2.35109 12.5381C2.51271 12.2565 2.72912 12.1384 3.05839 12.1384C10.3571 12.1433 17.6558 12.1433 24.9546 12.1384C25.2866 12.1384 25.4975 12.2668 25.6575 12.5456C26.3872 13.8163 27.1269 15.082 27.8627 16.3494C27.9114 16.4336 27.9542 16.5215 28.0002 16.6078V16.9848L27.9996 16.9864ZM15.1559 13.3244C15.832 14.2795 16.4675 15.1845 17.1178 16.0792C17.1693 16.1499 17.3205 16.1785 17.4252 16.1785C20.3119 16.1839 23.1986 16.1828 26.0854 16.1823C26.1692 16.1823 26.253 16.1731 26.3664 16.1661C25.846 15.2703 25.3397 14.4122 24.8499 13.545C24.7508 13.3697 24.6401 13.3195 24.4445 13.3201C21.4575 13.3266 18.4705 13.3244 15.4841 13.3244H15.1565H15.1559ZM12.8346 13.3433C12.7612 13.3325 12.7343 13.3249 12.7075 13.3249C9.62955 13.3244 6.55161 13.3228 3.47368 13.3314C3.37616 13.3314 3.23919 13.4199 3.18824 13.5061C2.70447 14.3162 2.2344 15.1344 1.76213 15.9514C1.72378 16.0178 1.6942 16.0895 1.64927 16.1823C2.50833 16.1823 3.33561 16.1823 4.16345 16.1823C6.30343 16.1823 8.44341 16.1839 10.5834 16.1779C10.688 16.1779 10.8376 16.1467 10.8891 16.0755C11.5383 15.1807 12.1733 14.2763 12.8346 13.3427V13.3433Z" fill="white"/>
<path d="M5.26414 10.3107C5.21976 10.2935 5.12443 10.2649 5.03732 10.2212C4.59957 10.0028 4.16785 9.7714 3.72298 9.567C3.61998 9.51954 3.45671 9.52008 3.35371 9.567C2.8935 9.78003 2.44973 10.0276 1.98897 10.2395C1.87392 10.2924 1.68107 10.3107 1.59122 10.2498C1.5063 10.1921 1.46575 10.0028 1.48219 9.88142C1.54848 9.39442 1.65258 8.91226 1.72161 8.42526C1.73585 8.32279 1.69257 8.17717 1.6208 8.10436C1.27674 7.75866 0.904735 7.43992 0.563412 7.09206C0.462056 6.98851 0.340429 6.78141 0.382614 6.69458C0.440689 6.57485 0.637374 6.48047 0.789682 6.45188C1.28003 6.36074 1.77914 6.31274 2.27112 6.22914C2.36481 6.2135 2.47712 6.12883 2.52314 6.04578C2.75708 5.62133 2.96034 5.18017 3.20086 4.7595C3.27263 4.63437 3.42275 4.48768 3.54821 4.47689C3.64902 4.46826 3.80187 4.6306 3.86981 4.75087C4.10375 5.16507 4.31468 5.59221 4.52616 6.01827C4.59026 6.14771 4.65929 6.22375 4.82255 6.24209C5.30139 6.2944 5.77968 6.35858 6.25195 6.44865C6.41412 6.47939 6.62286 6.5673 6.68915 6.69134C6.73462 6.77656 6.60149 6.99929 6.49411 7.10932C6.15333 7.45772 5.78187 7.77699 5.43507 8.11946C5.37371 8.17987 5.33591 8.30445 5.34906 8.3902C5.42576 8.89447 5.52218 9.39549 5.6093 9.89814C5.65313 10.1522 5.53917 10.3096 5.26469 10.3102L5.26414 10.3107Z" fill="white"/>
<path d="M22.0925 10.5442C22.1719 10.1036 22.2558 9.60959 22.3533 9.11826C22.3862 8.95323 22.3626 8.83566 22.2273 8.71593C21.8816 8.41122 21.5523 8.08816 21.2148 7.77374C21.0811 7.64916 20.8992 7.50246 21.0137 7.3261C21.0932 7.20314 21.2992 7.12547 21.4619 7.09527C21.926 7.00898 22.3955 6.94966 22.865 6.89572C23.0326 6.87631 23.1143 6.79865 23.1833 6.65734C23.3926 6.2302 23.6057 5.80414 23.8408 5.39102C23.9081 5.27237 24.0577 5.12352 24.1673 5.12514C24.2791 5.12675 24.4248 5.27668 24.4927 5.39641C24.7272 5.81007 24.9409 6.2356 25.1485 6.66382C25.2192 6.80997 25.3112 6.87739 25.4729 6.8968C25.9331 6.95235 26.3938 7.00736 26.8486 7.09419C27.0195 7.12655 27.1729 7.24628 27.3345 7.3261C27.2518 7.48358 27.1997 7.66965 27.0809 7.79369C26.7817 8.1065 26.4607 8.40043 26.1325 8.68411C25.9846 8.81193 25.9369 8.93867 25.9747 9.12528C26.0651 9.57237 26.1544 10.0205 26.2147 10.4725C26.2333 10.6122 26.2004 10.8139 26.1073 10.8948C26.0306 10.9617 25.8125 10.932 25.6893 10.8759C25.2444 10.6726 24.8099 10.4466 24.3788 10.2152C24.2243 10.1327 24.0999 10.1387 23.9481 10.2185C23.4994 10.4547 23.0474 10.6845 22.5905 10.9045C22.2799 11.0539 22.0821 10.925 22.0931 10.5442H22.0925Z" fill="white"/>
<path d="M11.9253 5.43473C12.0042 5.00058 12.0831 4.51465 12.1834 4.03304C12.2261 3.82648 12.1872 3.68248 12.0228 3.53848C11.6684 3.22945 11.3232 2.90909 10.9961 2.57256C10.9035 2.47764 10.8257 2.29373 10.8564 2.18101C10.8816 2.08825 11.0695 2.00034 11.1972 1.97823C11.7073 1.88978 12.2239 1.83584 12.7345 1.74955C12.8298 1.73337 12.9427 1.64493 12.9898 1.55917C13.2243 1.13473 13.4281 0.693564 13.6692 0.272894C13.7393 0.149929 13.8922 0.00754868 14.016 -0.000541127C14.1179 -0.00701297 14.2675 0.152087 14.3348 0.270737C14.5688 0.684935 14.7808 1.11154 14.9917 1.53814C15.0624 1.6816 15.1506 1.74524 15.3205 1.76358C15.8261 1.81805 16.3307 1.89086 16.8315 1.97876C16.9509 1.9998 17.1219 2.08771 17.1482 2.17885C17.1788 2.28672 17.1153 2.46577 17.0293 2.55368C16.6819 2.90801 16.3154 3.24563 15.9434 3.57515C15.8092 3.6938 15.779 3.81569 15.8108 3.97749C15.8974 4.42566 15.9916 4.87276 16.0535 5.32471C16.0727 5.46655 16.0415 5.65262 15.9576 5.76156C15.8371 5.91742 15.6629 5.81711 15.5133 5.74106C15.0695 5.51401 14.6274 5.28318 14.1754 5.07339C14.0806 5.02916 13.9289 5.02916 13.8346 5.07339C13.3585 5.29612 12.8961 5.54637 12.4228 5.77504C12.1297 5.91688 11.9253 5.79014 11.9264 5.43419L11.9253 5.43473Z" fill="white"/>
<path d="M16.8646 10.397C16.9391 9.12039 17.1183 7.86701 17.727 6.71232C18.071 6.05974 18.5373 5.50209 19.0956 5.01832C19.398 4.75621 19.7552 4.7616 19.993 5.02263C20.2269 5.27989 20.2001 5.64555 19.8971 5.90172C18.7701 6.8547 18.3006 8.11024 18.1532 9.51787C18.1187 9.84739 18.1066 10.1796 18.0639 10.5075C18.0152 10.8861 17.7478 11.0981 17.3961 11.063C17.0717 11.0307 16.8482 10.7524 16.8641 10.397H16.8646Z" fill="white"/>
<path d="M11.1781 10.4342C11.1386 10.7783 10.9069 11.0399 10.5897 11.0636C10.2555 11.089 9.99359 10.89 9.94538 10.5442C9.85553 9.90677 9.81115 9.26174 9.69391 8.62966C9.49284 7.54725 8.95867 6.63957 8.11495 5.90771C7.71226 5.55823 7.80102 5.01028 8.27164 4.85388C8.53736 4.76543 8.74555 4.87383 8.94114 5.04372C9.97387 5.94223 10.6078 7.06941 10.8746 8.3902C11.0104 9.06435 11.0795 9.75199 11.1786 10.4331L11.1781 10.4342Z" fill="white"/>
<path d="M14.5468 9.07348C14.5468 9.53028 14.5501 9.98655 14.5457 10.4434C14.5424 10.8144 14.2937 11.0663 13.9441 11.0646C13.5968 11.063 13.3502 10.8095 13.3486 10.4358C13.3447 9.53136 13.3447 8.62746 13.3486 7.72302C13.3502 7.34873 13.5946 7.09147 13.9386 7.08608C14.2953 7.08069 14.5435 7.34118 14.5462 7.73057C14.5495 8.1782 14.5468 8.62584 14.5468 9.07348Z" fill="white"/>
</svg>
