<svg width="113" height="33" viewBox="0 0 113 33" fill="none" xmlns="http://www.w3.org/2000/svg">
<g clip-path="url(#clip0_8_66)">
<path d="M0.510254 5.27998L4.37412 4.39998L9.98767 3.37331L16.6219 2.41998L23.9122 1.68664L29.6715 1.31998L32.6606 1.09998H34.1915V4.03331L38.5657 4.25331L34.0457 31.7533L26.9012 30.2133L21.4335 29.1866L15.0909 28.5266L11.5186 28.2333H4.08251L2.84316 16.3533L1.82251 11L0.510254 5.27998Z" fill="white"/>
<path d="M103.96 21.0467C104.689 21.4867 106.002 21.9267 107.096 21.9267C108.408 21.9267 109.063 21.4133 109.063 20.6059C109.063 19.7993 108.554 19.36 107.096 18.8467C104.763 18.0393 103.741 16.7933 103.741 15.4C103.741 13.3467 105.491 11.66 108.334 11.66C109.647 11.66 110.813 12.0267 111.542 12.3933L110.959 14.52C110.449 14.2267 109.501 13.86 108.407 13.86C107.314 13.86 106.73 14.3733 106.73 15.1067C106.73 15.84 107.314 16.2067 108.844 16.7933C111.031 17.6 112.052 18.7 112.052 20.3867C112.052 22.5133 110.302 24.1274 107.094 24.1274C105.636 24.1274 104.323 23.7607 103.375 23.2474L103.96 21.0467ZM91.3479 15.4733C91.3479 14.08 91.3479 12.98 91.275 11.9533H93.9724L94.1175 13.7133H94.1911C94.7014 12.76 96.0137 11.66 98.055 11.66C100.169 11.66 102.356 12.98 102.356 16.72V23.76H99.2943V17.0867C99.2943 15.4 98.6382 14.08 96.9614 14.08C95.7221 14.08 94.9201 14.96 94.5556 15.84C94.482 16.1333 94.4098 16.5 94.4098 16.7933V23.76H91.3479V15.4733ZM86.9008 16.6467C86.9008 16.3533 86.9008 16.06 86.8271 15.84C86.5363 14.74 85.6607 13.9333 84.3492 13.9333C82.5995 13.9333 81.3594 15.4 81.3594 17.82C81.3594 19.8733 82.38 21.4867 84.3492 21.4867C85.5156 21.4867 86.4626 20.7533 86.8271 19.6533C86.9008 19.3607 86.973 18.92 86.973 18.5533V16.6467H86.9008ZM89.9627 22.0733C89.9627 24.5667 89.4524 26.3274 88.1401 27.4274C86.9008 28.5274 85.1504 28.8941 83.4743 28.8941C81.9434 28.8941 80.2666 28.6007 79.2459 27.94L79.9021 25.6667C80.7047 26.1067 81.9441 26.5467 83.4022 26.5467C85.3698 26.5467 86.9015 25.52 86.9015 22.9533V21.9267H86.8279C86.0988 22.9526 84.8602 23.6859 83.3285 23.6859C80.3395 23.6859 78.1524 21.2659 78.1524 17.8933C78.1524 14.0067 80.704 11.66 83.6201 11.66C85.4427 11.66 86.5363 12.54 87.1195 13.4933H87.1924L87.3382 11.88H89.9634C89.8898 12.6867 89.8898 13.64 89.8898 15.2533V22.0733H89.9627ZM74.0698 11.9533H77.1317V23.76H74.0698V11.9533ZM77.3505 8.65334C77.3505 9.53334 76.6951 10.2667 75.6015 10.2667C74.5809 10.2667 73.9247 9.53334 73.9247 8.65334C73.9247 7.70001 74.6538 7.04001 75.6737 7.04001C76.6943 6.96667 77.3505 7.70001 77.3505 8.65334ZM65.1027 21.0467C65.8317 21.4867 67.144 21.9267 68.2376 21.9267C69.5505 21.9267 70.2059 21.4133 70.2059 20.6059C70.2059 19.7993 69.6956 19.36 68.2376 18.8467C65.9046 18.04 64.884 16.7933 64.884 15.4C64.884 13.3467 66.6337 11.66 69.4769 11.66C70.7892 11.66 71.9556 12.0267 72.6846 12.3933L72.1014 14.52C71.5911 14.2267 70.6434 13.86 69.5498 13.86C68.4563 13.86 67.873 14.3733 67.873 15.1067C67.873 15.84 68.457 16.2067 69.9872 16.7933C72.1743 17.6 73.195 18.7 73.195 20.3867C73.195 22.5133 71.4453 24.1274 68.2368 24.1274C66.7788 24.1274 65.4665 23.7607 64.5188 23.2474L65.1027 21.0467ZM61.3846 16.5733C61.3846 15.4733 60.8743 13.7133 58.9059 13.7133C57.0105 13.7133 56.2085 15.4 56.0627 16.5733H61.3846ZM56.0627 18.7C56.1356 20.8267 57.8853 21.78 59.7808 21.78C61.1659 21.78 62.1866 21.56 63.1343 21.2667L63.5725 23.32C62.5518 23.7607 61.0938 24.0533 59.3441 24.0533C55.4073 24.0533 53.0737 21.7067 53.0737 18.04C53.0737 14.74 55.115 11.66 58.9796 11.66C62.9156 11.66 64.2279 14.8133 64.2279 17.4533C64.2279 18.04 64.155 18.48 64.155 18.7H56.0627ZM49.3556 16.8667C49.3556 16.6467 49.3556 16.3533 49.2827 16.06C48.9911 14.8867 48.0434 13.9333 46.6582 13.9333C44.6898 13.9333 43.5963 15.62 43.5963 17.82C43.5963 19.9467 44.6898 21.5607 46.6582 21.5607C47.8976 21.5607 48.9911 20.7533 49.2827 19.4341C49.3556 19.1407 49.3556 18.8474 49.3556 18.5541V16.8667ZM52.4176 6.52667V20.46C52.4176 21.7059 52.4905 22.9526 52.4905 23.76H49.7201L49.5743 21.8533C48.8453 23.1733 47.3872 23.98 45.6376 23.98C42.7214 23.98 40.4614 21.56 40.4614 17.9667C40.4614 14.0067 42.9401 11.66 45.8563 11.66C47.533 11.66 48.6995 12.32 49.2827 13.2H49.3556V6.52667H52.4176Z" fill="white"/>
<path d="M34.7017 3.37335C34.7017 3.66669 34.6288 3.96002 34.6288 4.18002L38.274 4.47335L33.9727 29.92L34.8475 30.0667C36.3056 21.4134 37.7636 12.76 39.2217 4.18002C39.2946 3.88669 39.0759 3.66669 38.8572 3.66669L34.7017 3.37335ZM14.6533 28.5267C21.1417 29.406 27.6301 30.6526 33.9727 32.1934H34.2643C34.4101 32.1193 34.5559 32.0467 34.5559 31.8267C34.6288 31.5334 34.7017 31.1667 34.7017 30.8726L33.8269 30.7267L33.754 31.3134C31.494 30.8 21.1417 28.4534 21.1417 28.4534C21.0688 28.4534 14.7991 28.5267 14.6533 28.5267Z" fill="#9EB0C9"/>
<path d="M37.3266 30.4333C36.5247 30.2867 35.7227 30.14 34.9208 30.0667L34.0459 29.92L32.6608 29.7C32.7337 29.6267 32.8066 29.5533 32.8066 29.4067L34.6292 4.18C34.6292 3.88667 34.7021 3.59334 34.7021 3.37334L34.8479 1.32C34.8479 1.1 34.7021 0.880005 34.4834 0.880005C25.8808 0.953338 17.3511 1.76 8.96724 3.15334C7.72788 3.3 6.56143 3.52 5.39498 3.74L3.13498 4.18C3.13498 3.22667 3.13498 2.27334 3.20788 1.32C3.20788 1.02667 2.98917 0.880005 2.77046 0.880005C2.55175 0.880005 2.40595 1.02667 2.40595 1.24667L2.33304 4.32667C1.60401 4.47334 1.02079 4.62 0.364656 4.76667C0.145946 4.76667 -0.0727632 4.98667 0.00013999 5.20667C1.82272 11.7333 2.33304 18.5533 3.28079 25.2267C3.13498 23.9067 2.98917 22.5867 2.91627 21.1933C3.06208 22.5133 3.13498 23.8333 3.35369 25.2267C3.42659 25.8133 3.4995 26.4 3.5724 26.9133H3.35369C2.84337 26.9133 2.77046 27.72 3.28079 27.72H3.7182L3.86401 28.7467C3.86401 28.9667 4.08272 29.1133 4.22853 29.1133C4.44724 29.1133 4.73885 28.9667 4.66595 28.6V28.5267C6.41562 28.4533 8.2382 28.4533 9.98788 28.4533C11.5918 28.4533 13.1956 28.4533 14.7266 28.5274C14.8724 28.5274 23.1105 29.1867 28.6511 29.92C30.4008 30.14 32.2234 30.4333 33.973 30.7274L34.8479 30.8733L37.3266 31.3141H37.3995C37.764 31.3133 37.8369 30.5067 37.3266 30.4333ZM2.33304 11.8067C1.96853 9.68001 1.53111 7.55334 0.947882 5.5C1.3853 5.42667 1.82272 5.35334 2.26014 5.20667C2.26014 7.40667 2.26014 9.60667 2.33304 11.8067L2.40595 14.3C2.40595 13.42 2.33304 12.6133 2.33304 11.8067ZM4.44724 26.9867L4.15562 25.08C4.22853 25.6667 4.30143 26.2533 4.37433 26.7667L4.15562 25.0067L3.79111 21.56C3.35369 17.16 3.13498 12.6867 3.13498 8.28667V4.98667C13.2685 2.93334 23.6208 1.76 33.973 1.61334C33.3169 10.7067 32.5879 19.8 32.0047 28.82C26.8285 28.2333 21.6524 27.8667 16.4763 27.72C12.4666 27.4267 8.45691 27.1333 4.44724 26.9867Z" fill="#4C7196"/>
<path d="M11.7372 10.0467C10.2063 10.0467 9.11272 11.3667 9.11272 13.2733C9.11272 14.8867 10.0605 16.1333 11.7372 16.1333C12.9766 16.1333 13.8514 15.5467 14.3618 14.8133C14.4347 14.5933 14.5076 14.3733 14.5076 13.9333C14.5076 11.88 13.7056 10.0467 11.7372 10.0467ZM7.50885 21.6333C7.94627 21.7067 8.45659 21.6333 9.18562 21.56C10.3521 21.4859 11.5914 21.0467 12.4663 20.3859C13.4869 19.5793 14.2159 18.4059 14.5076 16.9393H14.4347C13.6327 17.82 12.4663 18.3333 10.9353 18.3333C8.09207 18.3333 6.05078 16.3533 6.05078 13.42C6.05078 10.4133 8.45659 7.84668 11.883 7.84668C15.6011 7.84668 17.6424 10.7067 17.6424 14.52C17.6424 17.8941 16.4759 20.24 14.8721 21.78C13.4869 23.0267 11.5185 23.76 9.40433 23.9059C8.7482 23.98 8.01917 23.98 7.58175 23.98V21.6333H7.50885ZM23.7663 10.0467C22.2353 10.0467 21.1418 11.3667 21.1418 13.2733C21.1418 14.8867 22.0895 16.1333 23.7663 16.1333C25.0056 16.1333 25.8805 15.5467 26.3908 14.8133C26.4637 14.5933 26.5366 14.3733 26.5366 13.9333C26.6095 11.88 25.8076 10.0467 23.7663 10.0467ZM19.5379 21.6333C19.9753 21.7067 20.4856 21.6333 21.2147 21.56C22.3811 21.4859 23.6205 21.0467 24.4953 20.3859C25.5159 19.5793 26.245 18.4059 26.5366 16.9393H26.4637C25.6618 17.8193 24.4953 18.3326 22.9643 18.3326C20.1211 18.3326 18.0798 16.3526 18.0798 13.4193C18.0798 10.4126 20.4856 7.84595 23.9121 7.84595C27.6301 7.84595 29.6714 10.7059 29.6714 14.5193C29.6714 17.8933 28.505 20.2393 26.9011 21.7793C25.5159 23.0259 23.5476 23.7593 21.4334 23.9052C20.7043 23.9793 20.0482 23.9793 19.6108 23.9793V21.6326L19.5379 21.6333Z" fill="#F36830"/>
</g>
<defs>
<clipPath id="clip0_8_66">
<rect width="113" height="33" fill="white"/>
</clipPath>
</defs>
</svg>
