<svg width="21" height="18" viewBox="0 0 21 18" fill="none" xmlns="http://www.w3.org/2000/svg">
<g clip-path="url(#clip0_36_7591)">
<path d="M15.5771 17.9998H5.4195C5.3952 17.9833 5.37228 17.9641 5.34661 17.9509C4.98725 17.77 4.81811 17.4579 4.89924 17.1212C4.99 16.7429 5.26181 16.5427 5.6881 16.5418C6.13043 16.5409 6.57689 16.5039 7.01372 16.5519C7.4721 16.6026 7.72237 16.4463 7.87272 16.0182C7.98319 15.7025 8.16654 15.4124 8.33155 15.0811C8.20504 15.0811 8.12253 15.0811 8.04003 15.0811C6.27116 15.0811 4.50183 15.0816 2.73296 15.0802C2.59636 15.0802 2.45702 15.0807 2.32317 15.0574C0.892583 14.8047 0.00425162 13.757 0.00241811 12.3086C-0.00170726 9.1332 0.000126239 5.95821 0.00287649 2.78276C0.00287649 2.5936 0.0106689 2.40125 0.0459638 2.2162C0.299904 0.892567 1.38946 0.00115679 2.75404 0.000699887C7.79434 -0.00067081 12.8342 0.000242988 17.8745 0.000242988C18.0193 0.000242988 18.1642 -0.00112771 18.309 0.000242988C19.7364 0.0162345 20.8823 1.0904 20.9841 2.50679C20.9905 2.59771 20.9951 2.68864 20.9951 2.78002C20.9955 5.95547 20.9841 9.13046 21.0001 12.3059C21.0084 13.9649 19.6782 15.1186 18.1976 15.0893C16.4448 15.0546 14.6901 15.0811 12.9364 15.0816C12.8571 15.0816 12.7778 15.0884 12.6705 15.0934C12.8956 15.5426 13.1119 15.9584 13.3113 16.3819C13.3741 16.5158 13.4548 16.5464 13.5919 16.5446C14.1942 16.5377 14.7965 16.5382 15.3988 16.5432C15.7371 16.5459 16.0015 16.7652 16.0905 17.0997C16.1688 17.3944 16.0378 17.7206 15.7714 17.8883C15.7082 17.9281 15.6422 17.9628 15.5771 17.9998ZM10.4864 13.6245C12.0114 13.6245 13.5364 13.6245 15.0619 13.6245C16.1294 13.6245 17.197 13.6286 18.2645 13.6227C18.9727 13.6186 19.5145 13.1123 19.5154 12.4407C19.52 9.17386 19.5191 5.90749 19.5154 2.64066C19.515 2.13944 19.1854 1.69214 18.7014 1.54548C18.5089 1.48699 18.2966 1.4742 18.0931 1.4742C13.0299 1.47054 7.96669 1.47146 2.90302 1.47146C2.82693 1.47146 2.75038 1.47009 2.67429 1.47466C1.94914 1.51623 1.47839 2.00603 1.47793 2.73113C1.47609 5.9445 1.47701 9.15787 1.47839 12.3717C1.47839 12.4768 1.4848 12.5851 1.51047 12.687C1.65715 13.2754 2.12653 13.6236 2.7765 13.6241C5.34616 13.6254 7.91626 13.6245 10.4859 13.6245H10.4864Z" fill="#ABA1E7"/>
</g>
<defs>
<clipPath id="clip0_36_7591">
<rect width="21" height="18" fill="white"/>
</clipPath>
</defs>
</svg>
