<svg width="27" height="23" viewBox="0 0 27 23" fill="none" xmlns="http://www.w3.org/2000/svg">
<path d="M10.3927 22.5C10.1761 22.413 9.94999 22.3474 9.86336 22.0809C9.72231 21.6474 9.95897 21.2633 10.4154 21.2235C10.6246 21.2052 10.8369 21.2251 11.0477 21.2144C11.4111 21.1956 11.6362 21.0038 11.6494 20.6368C11.6716 20.0147 11.6557 19.3909 11.6557 18.7382C11.2606 18.7382 10.8855 18.7473 10.5105 18.736C9.99014 18.7199 9.71333 18.3508 9.8623 17.8877C9.92675 17.6862 10.0551 17.5482 10.2659 17.5133C10.4038 17.4902 10.5437 17.4719 10.6832 17.4719C15.419 17.4697 20.1548 17.4703 24.8905 17.4697C25.0136 17.4697 25.1378 17.474 25.2593 17.459C25.5313 17.4262 25.7003 17.2559 25.7421 16.9771C25.7606 16.854 25.7706 16.7289 25.7706 16.6042C25.7722 11.7797 25.7722 6.95523 25.7717 2.13073C25.7717 1.44144 25.5968 1.26683 24.9111 1.26683C18.1194 1.26683 11.3277 1.26683 4.53594 1.26683C3.86453 1.26683 3.69443 1.43983 3.69443 2.1216C3.69443 4.07826 3.69496 6.03492 3.69391 7.99158C3.69391 8.45953 3.51853 8.69269 3.14717 8.73567C2.78531 8.77758 2.54179 8.59223 2.47893 8.22153C2.46255 8.12536 2.45146 8.02704 2.45093 7.9298C2.44935 5.97314 2.44829 4.01648 2.4504 2.05981C2.45093 1.24051 2.72562 0.560351 3.49687 0.207378C3.7816 0.0752149 4.12126 0.00913324 4.4361 0.00859599C11.2981 -0.002149 18.1606 0.0010745 25.0226 0C26.0669 0 26.7722 0.594735 26.9581 1.47153C26.9634 1.4957 26.9861 1.51558 27.0004 1.53761V17.1925C26.8857 17.4504 26.8033 17.7308 26.6491 17.9619C26.2592 18.5458 25.6692 18.7376 25.0025 18.7382C22.7094 18.7387 20.4162 18.7382 18.1236 18.7382C18.0233 18.7382 17.9224 18.7382 17.8109 18.7382C17.8109 19.3829 17.8025 19.9814 17.8135 20.5793C17.8215 21.0027 18.0386 21.2047 18.4633 21.216C18.6477 21.2208 18.8331 21.2085 19.0164 21.2203C19.4723 21.2498 19.711 21.5797 19.6128 22.0294C19.5446 22.3421 19.2911 22.4205 19.0386 22.5H10.3927ZM12.8622 18.7511V21.1982H16.5986V18.7511H12.8622Z" fill="white"/>
<path d="M1.79878 22.5C1.55526 22.435 1.29694 22.4039 1.07191 22.2986C0.376202 21.9724 0.0228013 21.3938 0.011708 20.6207C-0.00308303 19.6381 0.007482 18.6555 0.007482 17.6723C0.007482 15.7694 0.0238578 13.8664 0.00114298 11.9635C-0.0115351 10.932 0.701076 10.0009 1.82203 9.99823C3.5436 9.99447 5.2657 9.98803 6.98727 10.0181C7.82455 10.0326 8.52237 10.8116 8.59157 11.7185C8.59791 11.7986 8.59844 11.8791 8.59844 11.9597C8.59844 14.8098 8.60002 17.6594 8.59791 20.5095C8.59685 21.4878 8.09607 22.1712 7.21336 22.4108C7.08024 22.4468 6.94343 22.4699 6.80819 22.4995H1.79878V22.5ZM7.36022 16.255C7.36022 14.862 7.36127 13.4689 7.36022 12.0758C7.35969 11.4338 7.17216 11.2414 6.54988 11.2409C5.04806 11.2404 3.54624 11.2404 2.04442 11.2409C1.43852 11.2409 1.23725 11.4418 1.23672 12.0564C1.23514 14.8426 1.23514 17.6288 1.23672 20.4155C1.23672 21.0226 1.43165 21.2165 2.0254 21.2171C3.52722 21.2171 5.02904 21.2171 6.53086 21.2171C7.19065 21.2171 7.35969 21.0478 7.36022 20.3811C7.36127 19.0058 7.36022 17.6304 7.36022 16.255Z" fill="white"/>
<path d="M17.166 14.9909C14.9701 14.9909 12.7736 14.9914 10.5776 14.9909C10.1149 14.9909 9.88775 14.8238 9.82858 14.4488C9.77629 14.1184 9.97649 13.8229 10.3024 13.7622C10.4223 13.7396 10.5459 13.7278 10.668 13.7273C15.016 13.7257 19.3646 13.7257 23.7126 13.7273C23.8257 13.7273 23.9403 13.7396 24.0518 13.7595C24.3677 13.8159 24.5399 14.026 24.5457 14.3526C24.551 14.6573 24.3851 14.8872 24.093 14.956C23.9752 14.9839 23.85 14.9898 23.7279 14.9898C21.5405 14.992 19.3535 14.9914 17.166 14.9914V14.9909Z" fill="white"/>
<path d="M14.1232 16.2464C14.1163 15.9004 14.3936 15.6087 14.7307 15.6082C15.0497 15.6076 15.3355 15.8924 15.344 16.219C15.3524 16.551 15.0566 16.8599 14.7307 16.8594C14.4095 16.8589 14.1295 16.5763 14.1232 16.2464Z" fill="white"/>
<path d="M4.90826 19.976C4.90826 20.3107 4.63991 20.5906 4.31239 20.5998C3.97748 20.6084 3.69381 20.3215 3.69434 19.9739C3.69486 19.6397 3.96163 19.3587 4.28809 19.3485C4.61719 19.3383 4.90826 19.6327 4.90773 19.976H4.90826Z" fill="white"/>
</svg>
