<svg width="11" height="21" viewBox="0 0 11 21" fill="none" xmlns="http://www.w3.org/2000/svg">
<g clip-path="url(#clip0_17_3844)">
<path d="M7.14894 20.8998H3.25632C3.2505 20.8123 3.23928 20.7245 3.23928 20.637C3.23845 17.6447 3.23845 14.6529 3.23845 11.6606V11.3732H0V7.64437H3.23845C3.23845 7.54504 3.23845 7.46533 3.23845 7.38521C3.23845 6.6167 3.22058 5.84779 3.24468 5.08011C3.26089 4.55932 3.28458 4.02955 3.39472 3.52266C3.78581 1.72772 4.88926 0.589272 6.71504 0.153515C7.56455 -0.0492391 8.42736 -0.00468228 9.28809 0.0284287C9.85914 0.0505027 10.4294 0.0930157 11 0.126535V3.4732C10.18 3.48546 9.35916 3.48751 8.53958 3.51285C7.83969 3.53452 7.37545 3.90651 7.21419 4.55442C7.1718 4.72406 7.15143 4.9027 7.14977 5.07765C7.14187 5.87273 7.14395 6.66821 7.14354 7.46328C7.14354 7.52133 7.15185 7.57938 7.15808 7.655H10.8691C10.7053 8.90504 10.5441 10.1338 10.3803 11.3814H7.14271V11.6422C7.14271 14.334 7.14271 17.0258 7.14271 19.7176C7.14271 20.1117 7.14645 20.5058 7.14852 20.9002L7.14894 20.8998Z" fill="white"/>
</g>
<defs>
<clipPath id="clip0_17_3844">
<rect width="11" height="20.9" fill="white"/>
</clipPath>
</defs>
</svg>
