<svg width="81" height="92" viewBox="0 0 81 92" fill="none" xmlns="http://www.w3.org/2000/svg">
<g clip-path="url(#clip0_8_40)">
<path d="M13.3005 34.2688C13.8198 32.7984 14.3345 31.3407 14.8538 29.8703C15.2462 29.3674 15.7532 28.9049 16.0228 28.3443C24.5875 10.7824 50.0298 6.95036 63.4662 21.2185C78.0437 36.7164 74.1015 59.5602 55.113 69.2069C48.8668 72.3758 42.4765 75.223 36.1934 78.2934C33.7362 79.4929 31.3825 80.8857 28.9748 82.1882L28.3509 81.9679L32.2855 70.8259C31.8567 70.4179 31.6347 70.1541 31.3687 69.9747C30.8996 69.6807 30.4216 69.4121 29.9174 69.1771C20.0655 64.6716 14.3774 56.9319 12.9407 46.3595C12.3989 42.4187 13.1664 38.2988 13.3305 34.2651L13.3005 34.2688Z" fill="#0096FF"/>
</g>
<path d="M29.969 56.1633C29.561 56.1633 29.357 55.9593 29.357 55.5513C29.357 54.7807 31.873 51.5167 36.905 45.7593C39.081 43.2207 40.169 41.9513 40.169 41.9513L39.489 36.4433C39.1717 34.9473 38.7863 33.882 38.333 33.2473C37.8797 32.6127 37.4717 32.2273 37.109 32.0913C36.7917 31.91 36.633 31.8193 36.633 31.8193C36.633 31.366 37.4263 31.1393 39.013 31.1393C40.645 31.1393 41.5517 31.366 41.733 31.8193C42.005 32.182 42.413 34.8793 42.957 39.9113C43.1837 39.6847 43.6143 39.254 44.249 38.6193C44.929 37.9393 45.677 37.1913 46.493 36.3753C47.3543 35.514 48.1477 34.7433 48.873 34.0633C52.0917 31.0713 53.7463 29.5753 53.837 29.5753C54.653 29.5753 55.061 30.0287 55.061 30.9353C55.061 31.2527 54.6983 31.6833 53.973 32.2273C52.5677 33.3607 50.9583 34.7207 49.145 36.3073C47.377 37.8487 45.405 39.662 43.229 41.7473C43.9997 47.5953 45.5637 50.5193 47.921 50.5193C48.193 50.5193 48.941 50.27 50.165 49.7713C50.301 49.7713 50.369 49.8393 50.369 49.9753C50.369 50.3833 49.7117 50.9047 48.397 51.5393C47.173 52.1287 46.153 52.4233 45.337 52.4233C44.113 52.4233 43.1837 51.8113 42.549 50.5873C41.9143 49.318 41.257 47.0287 40.577 43.7193C39.353 44.9887 38.333 46.054 37.517 46.9153C36.701 47.7313 36.1117 48.366 35.749 48.8193C35.3863 49.2727 35.001 49.7487 34.593 50.2473C34.185 50.746 33.777 51.29 33.369 51.8793C31.329 54.7353 30.1957 56.1633 29.969 56.1633Z" fill="black"/>
<defs>
<clipPath id="clip0_8_40">
<rect width="60" height="72" fill="white" transform="matrix(-0.942934 -0.332979 -0.332979 0.942934 80.5503 24.0437)"/>
</clipPath>
</defs>
</svg>
