<svg width="25" height="20" viewBox="0 0 25 20" fill="none" xmlns="http://www.w3.org/2000/svg">
<g clip-path="url(#clip0_17_3850)">
<path d="M23.2423 19.4593H1.75785C1.70599 19.4405 1.65511 19.4183 1.60179 19.404C0.63654 19.1383 0.00494783 18.354 0.00396937 17.3654C-0.00190135 12.4565 -0.00239058 7.54711 0.0103293 2.63824C0.0113078 2.32958 0.0925195 1.99574 0.227057 1.7182C0.618928 0.913715 1.29553 0.540364 2.17956 0.540364C9.06201 0.540364 15.9445 0.540364 22.8269 0.540364C22.892 0.540364 22.957 0.539376 23.0221 0.544315C23.618 0.586786 24.1429 0.806549 24.4947 1.29744C24.7119 1.60066 24.8347 1.97253 25.0001 2.31329V17.6859C24.9829 17.7298 24.9609 17.7728 24.9502 17.8182C24.8298 18.3106 24.593 18.7402 24.1723 19.0183C23.8885 19.2059 23.5539 19.3151 23.2423 19.4598V19.4593ZM1.86303 1.61992C1.99855 1.74783 2.07976 1.82684 2.16244 1.9029C4.78274 4.31536 7.40304 6.72782 10.0238 9.14028C10.5767 9.64944 11.1275 10.1606 11.6857 10.6638C12.2523 11.1744 12.7415 11.1725 13.3085 10.6707C13.3452 10.6381 13.3809 10.605 13.4171 10.5715C16.5374 7.7007 19.6572 4.82995 22.777 1.9587C22.8827 1.86141 22.9869 1.76166 23.1376 1.61943H1.86303V1.61992ZM10.1006 10.649C7.34433 13.2126 4.60271 15.7623 1.86157 18.3126C1.87673 18.3338 1.89141 18.355 1.90657 18.3768H23.0955C23.1082 18.354 23.1209 18.3308 23.1337 18.3081C20.391 15.7574 17.6484 13.2066 14.9 10.65C14.5932 10.9285 14.3271 11.169 14.0619 11.4105C13.0404 12.3414 11.9568 12.3385 10.9304 11.4021C10.6711 11.1656 10.4108 10.9305 10.1011 10.649H10.1006ZM9.32032 9.92994C6.59288 7.41773 3.85859 4.89909 1.08174 2.34144V17.5989C3.84196 15.0294 6.57184 12.4881 9.32032 9.92945V9.92994ZM15.6798 9.93093C18.4273 12.4881 21.1601 15.0314 23.9238 17.6034V2.3365C21.1361 4.90452 18.4009 7.42415 15.6798 9.93044V9.93093Z" fill="white"/>
</g>
<defs>
<clipPath id="clip0_17_3850">
<rect width="25" height="18.9189" fill="white" transform="translate(0 0.540527)"/>
</clipPath>
</defs>
</svg>
