<svg width="45" height="45" viewBox="0 0 45 45" fill="none" xmlns="http://www.w3.org/2000/svg">
<circle cx="22.5" cy="22.5" r="22.5" transform="matrix(-1 0 0 1 45 0)" fill="white"/>
<path d="M23.3818 31C22.911 30.7919 22.7119 30.5475 22.8105 30.1892C22.8657 29.9886 23.0137 29.794 23.1658 29.6414C24.5256 28.2757 25.8954 26.92 27.2628 25.562C27.705 25.1235 28.1494 24.6874 28.6649 24.1788H28.2322C19.63 24.1788 22.0284 24.1788 13.4262 24.1788C13.2019 24.1788 12.977 24.1858 12.7527 24.1771C12.3024 24.1583 11.9988 23.876 12 23.489C12.0012 23.1148 12.2906 22.8389 12.7269 22.8026C12.8238 22.7945 12.9218 22.7997 13.0199 22.7997C21.7489 22.7997 19.4779 22.7997 28.2064 22.7997H28.635C28.5099 22.6676 28.4348 22.5834 28.3549 22.5045C26.6023 20.7606 24.8497 19.0173 23.0971 17.2728C22.7507 16.9285 22.6943 16.5737 22.9303 16.2673C23.1593 15.9703 23.5615 15.9119 23.8627 16.137C23.9561 16.2065 24.0418 16.2872 24.1246 16.369C26.3005 18.5292 28.4765 20.6893 30.6483 22.8535C30.7839 22.9885 30.8837 23.1587 31 23.3124V23.662C30.862 23.8362 30.7405 24.0262 30.5843 24.1823C28.4542 26.3068 26.3211 28.4277 24.1815 30.5428C24.0001 30.7217 23.767 30.8486 23.558 30.9994L23.3818 31Z" fill="#24276E"/>
</svg>
