<svg width="45" height="45" viewBox="0 0 45 45" fill="none" xmlns="http://www.w3.org/2000/svg">
<circle cx="22.5" cy="22.5" r="22.5" fill="white"/>
<path d="M21.6182 31C22.089 30.7919 22.2881 30.5475 22.1895 30.1892C22.1343 29.9886 21.9863 29.794 21.8342 29.6414C20.4744 28.2757 19.1046 26.92 17.7372 25.562C17.295 25.1235 16.8506 24.6874 16.3351 24.1788H16.7678C25.37 24.1788 22.9716 24.1788 31.5738 24.1788C31.7981 24.1788 32.023 24.1858 32.2473 24.1771C32.6976 24.1583 33.0012 23.876 33 23.489C32.9988 23.1148 32.7094 22.8389 32.2731 22.8026C32.1762 22.7945 32.0782 22.7997 31.9801 22.7997C23.2511 22.7997 25.5221 22.7997 16.7936 22.7997H16.365C16.4901 22.6676 16.5652 22.5834 16.6451 22.5045C18.3977 20.7606 20.1503 19.0173 21.9029 17.2728C22.2493 16.9285 22.3057 16.5737 22.0697 16.2673C21.8407 15.9703 21.4385 15.9119 21.1373 16.137C21.0439 16.2065 20.9582 16.2872 20.8754 16.369C18.6995 18.5292 16.5235 20.6893 14.3517 22.8535C14.2161 22.9885 14.1163 23.1587 14 23.3124V23.662C14.138 23.8362 14.2595 24.0262 14.4157 24.1823C16.5458 26.3068 18.6789 28.4277 20.8185 30.5428C20.9999 30.7217 21.233 30.8486 21.442 30.9994L21.6182 31Z" fill="#24276E"/>
</svg>
