<svg width="18" height="22" viewBox="0 0 18 22" fill="none" xmlns="http://www.w3.org/2000/svg">
<g clip-path="url(#clip0_17_3841)">
<path d="M6.06954 21.1765C5.71566 21.1201 5.35817 21.0798 5.00831 21.0044C2.57008 20.4777 0.567186 18.374 0.113805 15.8739C-0.523334 12.3606 1.58468 9.0373 4.96939 8.2241C5.70322 8.04786 6.44628 8.01219 7.19456 8.10342C7.25274 8.11047 7.31011 8.12955 7.37391 8.14448V11.6245C7.17972 11.5889 6.99475 11.5482 6.80819 11.5217C5.20089 11.2961 3.6923 12.4448 3.4307 14.0911C3.1675 15.7494 4.22111 17.3327 5.80914 17.6649C7.67041 18.0543 9.4073 16.641 9.43498 14.68C9.46066 12.8661 9.44662 11.0514 9.44742 9.23677C9.44863 6.24935 9.44742 3.26235 9.44742 0.274938V0H12.7719C12.8193 0.354558 12.8498 0.709946 12.916 1.05828C13.332 3.24742 15.1873 5.00363 17.3294 5.24581C17.5529 5.2711 17.7764 5.29598 17.9999 5.32086V8.7155C17.9545 8.72297 17.9088 8.7379 17.8638 8.73707C16.0672 8.6985 14.4374 8.14199 12.9778 7.05551C12.9276 7.01818 12.8747 6.98501 12.8004 6.934C12.8004 7.05468 12.8004 7.13679 12.8004 7.21889C12.8089 9.61164 12.8233 12.0044 12.8209 14.3971C12.8205 14.8562 12.782 15.3202 12.711 15.7739C12.3145 18.311 10.2619 20.4964 7.81084 21.0044C7.46017 21.0769 7.10349 21.1197 6.74961 21.1761H6.06914L6.06954 21.1765Z" fill="white"/>
</g>
<defs>
<clipPath id="clip0_17_3841">
<rect width="18" height="21.1765" fill="white"/>
</clipPath>
</defs>
</svg>
