<svg width="26" height="26" viewBox="0 0 26 26" fill="none" xmlns="http://www.w3.org/2000/svg">
<g clip-path="url(#clip0_36_7546)">
<path d="M13.9122 25.9999H12.0839C11.7928 25.9618 11.5007 25.9282 11.2102 25.885C8.67198 25.5081 6.40045 24.5205 4.48969 22.8046C0.932789 19.6098 -0.53984 15.6109 0.17612 10.8868C0.677343 7.58366 2.3296 4.88164 4.95224 2.81482C7.94483 0.45558 11.3623 -0.412036 15.1207 0.179428C17.8472 0.60815 20.1935 1.84244 22.1495 3.78873C24.0913 5.72078 25.3202 8.03781 25.7996 10.7414C25.8789 11.1884 25.9339 11.6395 26.0001 12.0891V13.9169C25.9436 14.3242 25.8993 14.7341 25.8291 15.1394C25.4047 17.5948 24.3743 19.7654 22.7123 21.6222C20.7202 23.8476 18.2522 25.2488 15.3085 25.7939C14.8459 25.8794 14.3778 25.9323 13.9122 26.0004V25.9999ZM13.0018 24.4773C19.3228 24.4701 24.4933 19.295 24.477 12.9918C24.4608 6.67587 19.3208 1.53934 13.0059 1.52815C6.69813 1.51696 1.52255 6.68604 1.5195 13.0004C1.51594 19.3097 6.69355 24.4844 13.0023 24.4773H13.0018Z" fill="white"/>
<path d="M12.237 10.6937C12.237 9.9578 12.2355 9.2219 12.237 8.4855C12.238 8.00846 12.5474 7.67688 12.9881 7.67332C13.442 7.66925 13.757 8.00236 13.7575 8.49313C13.759 9.79608 13.7626 11.099 13.7529 12.4015C13.7514 12.6059 13.816 12.7427 13.9585 12.8841C15.3217 14.2369 16.6768 15.5983 18.038 16.9542C18.2644 17.1795 18.3865 17.4358 18.3097 17.7531C18.18 18.2922 17.5454 18.5109 17.0991 18.1757C17.032 18.1254 16.974 18.0623 16.9139 18.0028C15.4713 16.5615 14.0323 15.1167 12.5841 13.6805C12.3388 13.4374 12.2223 13.1745 12.2309 12.8256C12.2482 12.1157 12.236 11.4047 12.236 10.6937H12.237Z" fill="white"/>
<path d="M12.2371 4.61425C12.2371 4.36098 12.233 4.10771 12.2381 3.85495C12.2468 3.42623 12.5745 3.10482 12.9968 3.10431C13.4192 3.10431 13.7515 3.42471 13.7571 3.85292C13.7637 4.36759 13.7637 4.88226 13.7571 5.39693C13.7515 5.82565 13.4202 6.14758 12.9989 6.14808C12.5765 6.14808 12.2473 5.82718 12.2381 5.39897C12.2325 5.13756 12.2371 4.87565 12.2371 4.61425Z" fill="white"/>
<path d="M4.63045 12.2428C4.88386 12.2428 5.13728 12.2382 5.39018 12.2438C5.81914 12.253 6.14023 12.5815 6.13972 13.0041C6.13972 13.4262 5.81812 13.7568 5.38865 13.7624C4.87369 13.769 4.35873 13.769 3.84376 13.7624C3.41582 13.7568 3.09422 13.4242 3.09473 13.0026C3.09473 12.5815 3.41683 12.253 3.8458 12.2443C4.10735 12.2392 4.36941 12.2433 4.63096 12.2433L4.63045 12.2428Z" fill="white"/>
<path d="M21.3693 13.7634C21.1159 13.7634 20.8625 13.7674 20.6096 13.7623C20.1801 13.7537 19.8575 13.4277 19.8555 13.0066C19.8539 12.585 20.1745 12.2499 20.6015 12.2443C21.1164 12.2377 21.6314 12.2382 22.1463 12.2443C22.5768 12.2494 22.8989 12.5774 22.9005 12.999C22.902 13.4211 22.5814 13.7527 22.1545 13.7623C21.8929 13.7684 21.6309 13.7634 21.3693 13.7634Z" fill="white"/>
<path d="M12.2371 21.3659C12.2371 21.1127 12.2325 20.8594 12.2381 20.6066C12.2473 20.1789 12.5765 19.8575 12.9989 19.858C13.4207 19.858 13.752 20.18 13.7571 20.6087C13.7637 21.1233 13.7637 21.638 13.7571 22.1527C13.7515 22.5809 13.4182 22.9018 12.9968 22.9013C12.575 22.9013 12.2468 22.5789 12.2381 22.1501C12.233 21.8887 12.2371 21.6268 12.2371 21.3654V21.3659Z" fill="white"/>
<path d="M20.2226 6.52952C20.2282 6.95671 19.8832 7.31067 19.4614 7.30966C19.0579 7.30864 18.7022 6.95824 18.6935 6.55393C18.6849 6.13436 19.0355 5.7809 19.4619 5.7804C19.8817 5.7804 20.2175 6.10995 20.2231 6.52901L20.2226 6.52952Z" fill="white"/>
<path d="M19.4714 20.2232C19.0399 20.2273 18.6918 19.8855 18.6943 19.4609C18.6964 19.053 19.0429 18.7041 19.452 18.697C19.8764 18.6894 20.2224 19.0357 20.2209 19.4665C20.2199 19.8911 19.8947 20.2197 19.4714 20.2232Z" fill="white"/>
<path d="M5.77441 6.53612C5.77594 6.1135 6.10466 5.78497 6.52803 5.78242C6.95954 5.77988 7.30709 6.12367 7.302 6.54782C7.29691 6.95671 6.95038 7.30355 6.54126 7.30914C6.11738 7.31474 5.77289 6.96789 5.77492 6.53612H5.77441Z" fill="white"/>
<path d="M5.77297 19.4634C5.77297 19.0479 6.10881 18.7036 6.5215 18.696C6.93367 18.6884 7.30157 19.0505 7.30208 19.4639C7.30259 19.885 6.94843 20.2308 6.5215 20.2252C6.10322 20.2196 5.77246 19.883 5.77246 19.4634H5.77297Z" fill="white"/>
</g>
<defs>
<clipPath id="clip0_36_7546">
<rect width="26" height="26" fill="white"/>
</clipPath>
</defs>
</svg>
