<svg width="19" height="19" viewBox="0 0 19 19" fill="none" xmlns="http://www.w3.org/2000/svg">
<g clip-path="url(#clip0_15_3825)">
<path d="M0.0216812 18.9998C0.3876 18.5752 0.749715 18.1477 1.1202 17.7268C3.17687 15.3876 5.23545 13.0503 7.29327 10.7122C7.33435 10.6653 7.37277 10.6166 7.41993 10.5594C4.95512 7.0524 2.49068 3.54617 0 0.00240231C0.0886268 0.00240231 0.145683 0.00240231 0.203119 0.00240231C1.96767 0.00240231 3.73222 0.00351764 5.49677 -0.000200127C5.62495 -0.000200127 5.69874 0.0380928 5.77178 0.142562C7.32484 2.35984 8.88246 4.57414 10.4397 6.78881C10.4785 6.8442 10.5196 6.89811 10.5759 6.9747C10.7318 6.79996 10.8806 6.63638 11.0262 6.47019C12.8863 4.35702 14.7467 2.24421 16.6033 0.128434C16.6858 0.0343751 16.768 -0.00168723 16.8924 -0.000200127C17.3789 0.00612007 17.8657 0.00240231 18.4024 0.00240231C16.0312 2.69741 13.6847 5.36416 11.326 8.04504C11.3633 8.09969 11.4002 8.15471 11.4386 8.20899C13.9224 11.7424 16.4062 15.2757 18.8893 18.8098C18.9315 18.8697 18.9635 18.9362 19.0004 18.9994H13.345C13.3324 18.9782 13.3218 18.9559 13.3077 18.9359C11.6234 16.5386 9.93914 14.1414 8.25447 11.7446C8.2305 11.7104 8.19855 11.681 8.16584 11.6442C8.11677 11.6966 8.07341 11.7412 8.03233 11.7877C6.93534 13.0335 5.83834 14.279 4.74249 15.5255C3.72499 16.6829 2.70939 17.8417 1.69266 18.9998H0.0216812ZM2.29897 1.23707C2.35299 1.31849 2.38227 1.36533 2.41423 1.40995C6.29289 6.83379 10.1719 12.2576 14.0483 17.683C14.1175 17.7796 14.1864 17.8202 14.3096 17.819C15.0434 17.8131 15.7771 17.8161 16.5108 17.8157C16.5649 17.8157 16.6189 17.8109 16.6987 17.8071C16.6455 17.7268 16.6078 17.6651 16.566 17.6068C12.7927 12.3305 9.01369 7.05797 5.25637 1.77094C4.96729 1.36385 4.68201 1.18614 4.17573 1.22592C3.56752 1.27351 2.95245 1.23707 2.29897 1.23707Z" fill="white"/>
</g>
<defs>
<clipPath id="clip0_15_3825">
<rect width="19" height="19" fill="white"/>
</clipPath>
</defs>
</svg>
