<svg width="26" height="20" viewBox="0 0 26 20" fill="none" xmlns="http://www.w3.org/2000/svg">
<g clip-path="url(#clip0_17_3833)">
<path d="M14.367 20.0001H11.9797C11.8799 19.9872 11.7802 19.9654 11.6799 19.9634C10.6733 19.9385 9.66617 19.9286 8.65953 19.8913C7.00352 19.8307 5.34242 19.8463 3.69913 19.583C2.66806 19.4178 1.78917 18.9654 1.14386 18.1048C0.621204 17.4079 0.35555 16.5929 0.260891 15.7463C0.12552 14.5338 0.0328969 13.311 0.0130492 12.0913C-0.0164679 10.2582 0.00337981 8.42242 0.0619051 6.58978C0.0919312 5.64833 0.210509 4.70429 0.364201 3.77424C0.502626 2.93693 0.82935 2.15973 1.41969 1.52553C2.22836 0.65714 3.25077 0.277865 4.39329 0.218798C6.13378 0.128124 7.87529 0.019834 9.61731 0.00739877C12.5532 -0.0133266 15.4897 0.0125801 18.4251 0.0643936C19.7086 0.0871915 20.9982 0.157658 22.27 0.324497C23.6649 0.507917 24.7128 1.27527 25.2929 2.62139C25.7316 3.64004 25.84 4.7245 25.897 5.8188C25.9235 6.3245 25.9652 6.82916 26.0003 7.33382V12.6069C25.9825 12.7768 25.9632 12.9463 25.9479 13.1162C25.8619 14.0654 25.8115 15.0198 25.6807 15.9628C25.5779 16.7048 25.3311 17.4193 24.8919 18.0359C24.1489 19.0794 23.1122 19.6126 21.8679 19.6794C19.7651 19.7924 17.6602 19.8602 15.5564 19.9473C15.1599 19.9639 14.764 19.982 14.368 19.9996L14.367 20.0001ZM12.4912 18.4292C12.4912 18.4292 12.4912 18.4245 12.4912 18.4224C12.8464 18.4224 13.2021 18.4318 13.5568 18.4209C16.0093 18.3468 18.4623 18.281 20.9142 18.1825C21.4908 18.1592 22.0852 18.0913 22.6328 17.9172C23.4664 17.6525 23.8461 16.9406 24.0766 16.1229C24.3794 15.0494 24.3728 13.9437 24.4212 12.8468C24.5204 10.5913 24.5036 8.33434 24.3733 6.07994C24.328 5.29963 24.3082 4.5131 24.0695 3.75921C23.9245 3.30118 23.7718 2.8504 23.4008 2.50792C22.9127 2.05766 22.3321 1.84056 21.6959 1.80636C19.8033 1.70481 17.9101 1.59393 16.0159 1.55351C13.9945 1.51051 11.9705 1.51569 9.94861 1.55248C8.19794 1.58408 6.44778 1.67735 4.69864 1.77009C4.26504 1.79289 3.81923 1.86647 3.41006 2.00895C2.56832 2.3017 2.15304 2.98823 1.91538 3.82761C1.61868 4.87631 1.61919 5.95507 1.57135 7.02657C1.46957 9.32502 1.47516 11.6255 1.62326 13.9219C1.67161 14.6732 1.7739 15.4271 1.92606 16.1639C2.15253 17.2613 2.85789 17.9115 3.95002 18.0343C5.07523 18.1608 6.20706 18.2416 7.33838 18.2882C9.05445 18.3597 10.7731 18.3846 12.4901 18.4292H12.4912Z" fill="white"/>
<path d="M9.69226 9.6891C9.69226 8.67304 9.72229 7.65594 9.6831 6.64091C9.64951 5.77718 10.4938 5.14195 11.3513 5.62692C13.1972 6.67045 15.0532 7.69532 16.9077 8.72381C17.3046 8.94402 17.5499 9.27045 17.5479 9.72951C17.5458 10.1891 17.295 10.5129 16.8975 10.7295C15.0435 11.7399 13.1936 12.7585 11.3386 13.7663C10.5019 14.2207 9.69735 13.7264 9.69328 12.7632C9.68921 11.7383 9.69226 10.714 9.69226 9.6891ZM15.5005 9.72019C14.0572 8.91656 12.6552 8.13521 11.2277 7.34039V12.058C12.6536 11.2777 14.0547 10.5114 15.5005 9.72019Z" fill="white"/>
</g>
<defs>
<clipPath id="clip0_17_3833">
<rect width="26" height="20" fill="white"/>
</clipPath>
</defs>
</svg>
