<svg width="170" height="61" viewBox="0 0 170 61" fill="none" xmlns="http://www.w3.org/2000/svg">
<path fill-rule="evenodd" clip-rule="evenodd" d="M169.954 3.85256C166.363 1.47844 161.659 0.291382 155.84 0.291382H130.89V54.406L151.983 27.1085H147.608V13.7848H153.973C157.029 13.7848 159.125 14.6551 160.261 16.3956L169.954 3.85256ZM89.5788 40.2625V60.3753H72.8605V0.291382H97.8106C105.052 0.291382 110.569 2.13011 114.359 5.80756C118.206 9.42844 120.13 14.294 120.13 20.4042C120.13 24.1948 119.281 27.5894 117.584 30.5879C115.887 33.5865 113.341 35.9627 109.946 37.7165C106.608 39.4138 102.563 40.2625 97.8106 40.2625H89.5788ZM95.9436 27.1085C100.809 27.1085 103.242 24.8737 103.242 20.4042C103.242 15.9913 100.809 13.7848 95.9436 13.7848H89.5788V27.1085H95.9436ZM21.4367 50.3613H42.7376L46.0473 60.3753H63.6991L41.8041 0.545971H22.5399L0.560059 60.3753H18.127L21.4367 50.3613ZM32.1296 18.2826L38.5793 37.8014H25.595L32.1296 18.2826Z" fill="white"/>
</svg>
