<svg width="377" height="72" viewBox="0 0 377 72" fill="none" xmlns="http://www.w3.org/2000/svg">
<path fill-rule="evenodd" clip-rule="evenodd" d="M0.936035 56.9482V71.3211H28.8928C36.2187 71.3211 42.6277 69.8161 48.0992 66.7837C53.5606 63.7569 57.7815 59.6042 60.7482 54.3302L60.7497 54.3274C63.7148 48.9903 65.1905 42.9384 65.1905 36.1873C65.1905 29.4373 63.7153 23.4172 60.7495 18.1436C57.8455 12.865 53.6203 8.77449 48.0906 5.87711C46.2667 4.88856 44.3388 4.06607 42.3074 3.4088L41.9131 3.91906C43.9889 4.57671 45.953 5.40769 47.8054 6.412C53.2367 9.25698 57.3749 13.2658 60.2198 18.4385C63.1295 23.6112 64.5843 29.5274 64.5843 36.1873C64.5843 42.8471 63.1295 48.7957 60.2198 54.033C57.3102 59.2057 53.172 63.2792 47.8054 66.2535C42.4387 69.2278 36.1345 70.7149 28.8928 70.7149H1.54221V56.1638L0.936035 56.9482ZM20.6488 31.4376V53.6451H27.147C32.7723 53.6451 37.2014 52.1256 40.4343 49.0866C43.6672 46.0477 45.2837 41.7479 45.2837 36.1873C45.2837 30.6913 43.6672 26.4238 40.4343 23.3849C37.8377 20.8921 34.4694 19.4004 30.3294 18.9098L29.8953 19.4715C34.0978 19.904 37.4565 21.3665 40.0145 23.8222L40.0191 23.8265C43.1022 26.7246 44.6775 30.8158 44.6775 36.1873C44.6775 41.6258 43.1008 45.7482 40.0191 48.645C36.9265 51.5521 32.661 53.0389 27.147 53.0389H21.255V30.6531L20.6488 31.4376ZM142.023 66.1572L142.026 66.1594C147.326 70.0678 154.023 72 162.074 72C167.38 72 171.969 71.083 175.819 69.2241C179.658 67.3709 182.596 64.8418 184.605 61.6284C186.607 58.4242 187.606 54.8528 187.606 50.9294C187.606 46.312 186.55 42.4911 184.387 39.5163C182.268 36.6031 179.742 34.3719 176.806 32.8374C173.929 31.3332 170.313 29.8031 165.964 28.2455L165.957 28.243C162.026 26.8896 159.164 25.6774 157.341 24.6099C155.695 23.6088 154.922 22.2763 154.922 20.5722C154.922 19.1269 155.311 18.1507 155.987 17.5261C156.686 16.8816 157.686 16.523 159.068 16.523C160.686 16.523 161.91 16.998 162.81 17.8972L162.816 17.9037L162.823 17.91C163.783 18.8133 164.425 20.2424 164.673 22.294L164.738 22.8272H186.388L186.344 22.1803C185.882 15.3096 183.229 9.93665 178.357 6.13125C173.564 2.27176 167.145 0.374512 159.165 0.374512C154.249 0.374512 149.836 1.19361 145.936 2.84562C142.026 4.4368 138.925 6.83227 136.656 10.0356C134.374 13.1913 133.245 16.9725 133.245 21.3481C133.245 25.8993 134.268 29.6843 136.362 32.6569L136.365 32.6606L136.367 32.6643C138.485 35.5764 140.98 37.7775 143.856 39.2486L143.861 39.2511C146.738 40.6896 150.353 42.1543 154.701 43.6467L154.706 43.6485C158.768 45.0026 161.687 46.2456 163.501 47.3709L163.507 47.375L163.514 47.3789C165.215 48.376 166.027 49.7674 166.027 51.6083C166.027 53.0245 165.59 54.0373 164.781 54.7388L164.773 54.7456L164.766 54.7527C164.008 55.4564 162.883 55.8515 161.299 55.8515C159.561 55.8515 158.124 55.3169 156.952 54.2614C155.811 53.235 155.106 51.6259 154.92 49.3286L154.874 48.7714H133.399L133.44 49.4164C133.903 56.62 136.756 62.2238 142.023 66.1572ZM159.165 0.980685C167.053 0.980685 173.325 2.85579 177.98 6.60598C182.558 10.18 185.128 15.183 185.693 21.6148C185.71 21.8155 185.726 22.0176 185.739 22.221H165.275C165.016 20.0873 164.337 18.5031 163.238 17.4686C162.204 16.4341 160.814 15.9168 159.068 15.9168C157.581 15.9168 156.417 16.3048 155.576 17.0807C154.736 17.8566 154.315 19.0204 154.315 20.5722C154.315 22.512 155.221 24.0315 157.031 25.1306C158.906 26.2298 161.816 27.4584 165.76 28.8162C170.092 30.368 173.681 31.8875 176.526 33.3746C179.371 34.8618 181.828 37.0278 183.897 39.8728C185.966 42.7178 187 46.4033 187 50.9294C187 54.7443 186.03 58.2035 184.091 61.3071C182.151 64.4107 179.306 66.8677 175.556 68.6782C171.806 70.4886 167.312 71.3938 162.074 71.3938C154.121 71.3938 147.559 69.4864 142.386 65.6715C137.425 61.9668 134.66 56.7375 134.09 49.9838C134.073 49.7831 134.058 49.581 134.045 49.3776H154.315C154.509 51.77 155.253 53.5481 156.546 54.7119C157.839 55.8758 159.423 56.4577 161.299 56.4577C162.98 56.4577 164.273 56.0374 165.178 55.1969C166.148 54.3563 166.633 53.1601 166.633 51.6083C166.633 49.5392 165.695 47.9551 163.82 46.8559C161.945 45.6921 158.971 44.4312 154.897 43.0734C150.565 41.5862 146.977 40.1314 144.132 38.7089C141.351 37.2865 138.927 35.1527 136.858 32.3077C134.853 29.4628 133.851 25.8096 133.851 21.3481C133.851 17.0807 134.95 13.4275 137.149 10.3885C139.347 7.28489 142.354 4.95719 146.168 3.40538C149.983 1.78892 154.315 0.980685 159.165 0.980685ZM278.579 25.7368H299.725L299.612 25.0345C298.425 17.6453 294.951 11.7496 289.196 7.38389C283.442 3.01857 276.094 0.859453 267.202 0.859453C260.132 0.859453 253.947 2.36555 248.668 5.40013C243.395 8.36694 239.305 12.5568 236.407 17.9579L236.406 17.9603C233.573 23.2971 232.165 29.4105 232.165 36.2842C232.165 43.1582 233.573 49.3026 236.405 54.7025L236.407 54.7076C239.306 60.1104 243.429 64.3318 248.766 67.3625L248.77 67.3653C254.112 70.3327 260.327 71.806 267.396 71.806C275.708 71.806 282.633 69.7756 288.126 65.6722L288.127 65.6715C293.634 61.5409 297.649 56.5777 300.152 50.7818L300.202 50.6667V31.0227H264.171V45.8133H282.808C281.478 48.3336 279.754 50.2481 277.644 51.5807C275.294 53.0646 272.564 53.8148 269.432 53.8148C263.851 53.8148 259.699 52.3272 256.874 49.4431C254.108 46.49 252.678 42.1373 252.678 36.2842C252.678 31.1533 254.006 27.1384 256.601 24.1726C259.253 21.1501 262.797 19.6266 267.299 19.6266C269.932 19.6266 272.188 20.159 274.087 21.2007C275.998 22.2485 277.431 23.6559 278.406 25.4235L278.579 25.7368ZM236.941 18.2445C239.786 12.9425 243.795 8.8367 248.968 5.92706C254.141 2.95277 260.218 1.46563 267.202 1.46563C275.995 1.46563 283.205 3.59936 288.83 7.86682C294.297 12.0145 297.657 17.5671 298.91 24.5245C298.947 24.7254 298.981 24.9274 299.014 25.1306H278.937C277.903 23.2556 276.383 21.7684 274.379 20.6692C272.374 19.57 270.014 19.0204 267.299 19.0204C262.643 19.0204 258.925 20.6045 256.145 23.7728C253.429 26.8764 252.072 31.0469 252.072 36.2842C252.072 42.2328 253.526 46.7589 256.436 49.8625C259.41 52.9015 263.742 54.421 269.432 54.421C272.665 54.421 275.51 53.6451 277.967 52.0933C280.258 50.6464 282.099 48.553 283.491 45.8133C283.592 45.6146 283.69 45.4126 283.787 45.2071H264.777V31.6288H299.596V50.5415C297.139 56.2314 293.194 61.1131 287.763 65.1866C282.396 69.1954 275.607 71.1999 267.396 71.1999C260.412 71.1999 254.302 69.745 249.065 66.8354C243.828 63.8611 239.786 59.723 236.941 54.421C234.161 49.119 232.771 43.0734 232.771 36.2842C232.771 29.4951 234.161 23.4819 236.941 18.2445ZM376.394 70.7149H357.287L332.07 32.4047V70.7149H312.964V2.14455H332.07L357.287 40.9397V2.14455H376.394V70.7149ZM356.961 71.3211L332.677 34.4281V71.3211H312.358V1.53837H332.4L356.681 38.8948V1.53837H377V71.3211H356.961ZM219.322 2.04756H200.216V70.7149H219.322V2.04756ZM219.928 1.44138V71.3211H199.609V1.44138H219.928ZM97.1025 17.2746H122.222V2.04756H77.9959V70.7149H122.222V55.4878H97.1025V43.0734H119.313V28.6222H97.1025V17.2746ZM97.7086 28.016H119.919V43.6796H97.7086V54.8817H122.828V71.3211H77.3897V1.44138H122.828V17.8808H97.7086V28.016Z" fill="white"/>
</svg>
